<?xml version="1.0" encoding="UTF-8" standalone="no"?>
<svg
   xmlns:dc="http://purl.org/dc/elements/1.1/"
   xmlns:cc="http://creativecommons.org/ns#"
   xmlns:rdf="http://www.w3.org/1999/02/22-rdf-syntax-ns#"
   xmlns:svg="http://www.w3.org/2000/svg"
   xmlns="http://www.w3.org/2000/svg"
   xmlns:sodipodi="http://sodipodi.sourceforge.net/DTD/sodipodi-0.dtd"
   xmlns:inkscape="http://www.inkscape.org/namespaces/inkscape"
   width="210mm"
   height="297mm"
   viewBox="0 0 210 297"
   version="1.1"
   id="svg8"
   sodipodi:docname="MAI_backgrnd2.svg"
   inkscape:version="1.0.2-2 (e86c870879, 2021-01-15)">
  <defs
     id="defs2">
    <pattern
       id="Voronoi4695"
       width="158.75"
       height="127.88193999999999"
       patternUnits="userSpaceOnUse"
       patternTransform="translate(23.8125, 144.639)">
      <path
         d="M 137.402,0.000 141.610,10.004 M 141.610,10.004 150.120,11.085 M 140.830,15.204 141.610,10.004 M 71.487,5.497 71.747,0.000 M 71.487,5.497 80.190,14.907 M 20.665,15.843 24.622,0.000 M 130.677,26.674 140.830,15.204 M 20.665,15.843 22.134,18.434 M 122.169,25.238 133.098,0.000 M 122.169,25.238 130.677,26.674 M 60.097,20.493 71.487,5.497 M 60.097,20.493 61.581,24.170 M 22.134,18.434 54.599,23.332 M 54.599,23.332 60.097,20.493 M 21.625,26.210 22.134,18.434 M 110.566,0.000 113.906,26.636 M 113.906,26.636 122.169,25.238 M 140.830,15.204 158.750,28.573 M 2.811,38.921 21.625,26.210 M 80.190,14.907 111.523,29.032 M 111.523,29.032 113.906,26.636 M 47.382,40.336 54.599,23.332 M 21.625,26.210 24.927,38.013 M 24.927,38.013 47.382,40.336 M 150.120,11.085 158.750,15.114 M 110.276,34.781 111.523,29.032 M 130.677,26.674 144.629,38.742 M 144.629,38.742 158.750,29.835 M 110.276,34.781 115.242,42.497 M 143.960,41.807 144.629,38.742 M 101.824,55.564 111.636,56.862 M 111.636,56.862 115.242,42.497 M 135.601,50.105 143.960,41.807 M 143.960,41.807 154.645,54.968 M 47.382,40.336 49.344,51.165 M 91.808,48.461 110.276,34.781 M 91.808,48.461 101.824,55.564 M 91.040,48.731 91.808,48.461 M 115.242,42.497 129.258,52.824 M 129.258,52.824 135.601,50.105 M 22.653,50.479 24.927,38.013 M 22.653,50.479 49.344,51.165 M 80.190,14.907 86.386,48.572 M 86.386,48.572 91.040,48.731 M 61.581,24.170 85.951,48.778 M 85.951,48.778 86.386,48.572 M 20.821,53.613 22.653,50.479 M 61.581,24.170 68.873,54.000 M 68.873,54.000 78.788,53.590 M 78.788,53.590 85.951,48.778 M 135.601,50.105 144.986,64.488 M 144.986,64.488 154.645,54.968 M 2.811,38.921 12.482,57.070 M 12.482,57.070 20.821,53.613 M 126.090,63.720 129.258,52.824 M 111.636,56.862 114.356,66.154 M 114.356,66.154 126.090,63.720 M 7.318,62.167 12.482,57.070 M 49.344,51.165 55.766,60.954 M 55.766,60.954 68.873,54.000 M 126.090,63.720 130.731,70.233 M 101.824,55.564 109.695,70.312 M 109.695,70.312 114.356,66.154 M 54.979,63.136 55.766,60.954 M 154.645,54.968 158.750,56.481 M 130.731,70.233 144.018,72.057 M 144.018,72.057 144.986,64.488 M 144.018,72.057 147.195,75.359 M 147.195,75.359 158.750,69.535 M 78.788,53.590 83.952,76.798 M 48.624,71.850 54.979,63.136 M 54.979,63.136 79.763,80.228 M 79.763,80.228 83.952,76.798 M 83.952,76.798 100.849,77.532 M 91.040,48.731 100.849,77.532 M 125.865,83.454 130.731,70.233 M 20.821,53.613 41.469,74.904 M 41.469,74.904 48.624,71.850 M 123.036,84.782 125.865,83.454 M 100.849,77.532 103.784,78.893 M 103.784,78.893 109.695,70.312 M 147.195,75.359 147.901,83.954 M 38.174,79.372 41.469,74.904 M 103.784,78.893 105.117,81.860 M 105.117,81.860 123.036,84.782 M 4.267,85.464 15.342,83.595 M 7.318,62.167 15.342,83.595 M 125.865,83.454 140.291,90.228 M 48.624,71.850 64.380,90.375 M 64.380,90.375 75.542,89.155 M 75.542,89.155 79.763,80.228 M 140.291,90.228 144.400,90.481 M 144.400,90.481 147.901,83.954 M 144.400,90.481 144.932,92.093 M 31.768,87.259 38.174,79.372 M 75.542,89.155 79.588,95.211 M 144.803,95.858 144.932,92.093 M 15.342,83.595 22.934,89.794 M 22.934,89.794 31.768,87.259 M 38.174,79.372 59.180,99.303 M 59.180,99.303 64.380,90.375 M 123.036,84.782 123.955,102.403 M 123.955,102.403 140.291,90.228 M 123.496,103.685 123.955,102.403 M 144.803,95.858 153.441,108.302 M 0.000,15.277 20.665,15.843 M 0.000,38.191 2.811,38.921 M 123.496,103.685 135.366,110.641 M 135.366,110.641 144.803,95.858 M 69.410,111.682 79.588,95.211 M 135.366,110.641 136.220,112.763 M 136.220,112.763 153.441,108.302 M 79.588,95.211 100.384,107.849 M 100.384,107.849 105.117,81.860 M 13.963,110.297 22.934,89.794 M 136.220,112.763 136.741,119.030 M 0.000,95.917 4.267,85.464 M 0.000,110.952 13.963,110.297 M 31.768,87.259 52.800,112.527 M 52.800,112.527 59.180,99.303 M 52.800,112.527 52.957,113.623 M 52.957,113.623 69.410,111.682 M 100.384,107.849 101.683,111.753 M 101.683,111.753 123.496,103.685 M 100.400,119.112 101.683,111.753 M 100.400,119.112 136.741,119.030 M 69.410,111.682 98.723,124.009 M 98.723,124.009 100.400,119.112 M 13.963,110.297 26.897,127.882 M 47.614,127.882 52.957,113.623 M 0.000,62.331 7.318,62.167 M 0.000,85.038 4.267,85.464 M 98.601,127.882 98.723,124.009 M 136.741,119.030 140.703,127.882 M 153.441,108.302 158.750,111.495 M 144.932,92.093 158.750,97.085 M 147.901,83.954 158.750,85.038 M 150.120,11.085 153.328,0.000 "
         style="stroke:#000000;stroke-width:0.26458333333333334"
         id="path2130" />
    </pattern>
  </defs>
  <sodipodi:namedview
     id="base"
     pagecolor="#ffffff"
     bordercolor="#666666"
     borderopacity="1.0"
     inkscape:pageopacity="0.0"
     inkscape:pageshadow="2"
     inkscape:zoom="1.4"
     inkscape:cx="249.07963"
     inkscape:cy="286.18768"
     inkscape:document-units="mm"
     inkscape:current-layer="layer1"
     inkscape:document-rotation="0"
     showgrid="true"
     inkscape:window-width="2560"
     inkscape:window-height="1377"
     inkscape:window-x="-8"
     inkscape:window-y="-8"
     inkscape:window-maximized="1">
    <inkscape:grid
       type="xygrid"
       id="grid847" />
  </sodipodi:namedview>
  <metadata
     id="metadata5">
    <rdf:RDF>
      <cc:Work
         rdf:about="">
        <dc:format>image/svg+xml</dc:format>
        <dc:type
           rdf:resource="http://purl.org/dc/dcmitype/StillImage" />
        <dc:title></dc:title>
      </cc:Work>
    </rdf:RDF>
  </metadata>
  <g
     inkscape:label="Слой 1"
     inkscape:groupmode="layer"
     id="layer1">
    <g
       id="g3247"
       style="opacity:0.7;">
      <rect
         style="fill:#cd8b25;fill-opacity:1;stroke:#cd8b25;stroke-width:1;stroke-miterlimit:4;stroke-dasharray:none;stroke-opacity:1"
         id="rect851"
         width="149.75417"
         height="87.841667"
         x="21.166666"
         y="38.364582" />
      <path
         style="opacity:1;fill:#38445e;fill-opacity:1;stroke:#cd8b25;stroke-width:1.34983;stroke-miterlimit:4;stroke-dasharray:none;stroke-opacity:1"
         d="m 162.94747,310.72306 c -2.51255,-2.84434 -5.37185,-5.97827 -6.35399,-6.96429 -0.98215,-0.98601 -5.96429,-6.44848 -11.07143,-12.13881 -5.10715,-5.69034 -9.93513,-10.99391 -10.72886,-11.78572 -0.79373,-0.7918 -4.13307,-4.49322 -7.42076,-8.22536 -3.28769,-3.73214 -7.954,-8.875 -10.36959,-11.42857 -2.41559,-2.55357 -8.23696,-8.91565 -12.93638,-14.13796 -4.699429,-5.2223 -11.822971,-13.0973 -15.830097,-17.5 l -7.285686,-8.0049 -0.03574,-11.55039 -0.03574,-11.55039 1.964286,-0.39636 c 9.563702,-1.9298 11.49447,-2.02062 13.006624,-0.61184 0.814977,0.75927 2.360278,1.82765 3.434004,2.37418 1.073729,0.54654 3.077229,1.66921 4.452229,2.49485 5.17964,3.11015 11.15768,6.63367 13.57143,7.99913 1.375,0.77784 5.07143,2.94525 8.21429,4.81648 11.18539,6.65967 33.61175,19.87686 36.07143,21.25905 2.7851,1.56505 15.83617,9.25613 33.39285,19.67861 6.38393,3.78981 11.60715,7.32186 11.60715,7.84901 0,0.52715 -1.82988,3.42556 -4.06639,6.44091 -9.17996,12.37679 -16.05272,21.71327 -22.70165,30.83962 -11.18926,15.35844 -11.42433,15.66899 -11.87797,15.6922 -0.23744,0.0121 -2.48744,-2.30511 -5,-5.14945 z"
         id="path3129"
         transform="scale(0.26458333)" />
      <path
         style="opacity:1;fill:#38445e;fill-opacity:1;stroke:#cd8b25;stroke-width:1.90895;stroke-miterlimit:4;stroke-dasharray:none;stroke-opacity:1"
         d="m 231.44303,239.70115 c -5.83363,-4.30654 -19.24341,-13.9737 -29.7995,-21.48257 -10.5561,-7.50887 -33.06516,-23.6077 -50.02014,-35.77518 -16.95497,-12.16748 -31.95574,-22.90678 -33.33503,-23.86512 -1.37929,-0.95834 -5.66024,-4.02668 -9.51323,-6.81853 l -7.00543,-5.0761 h 12.58448 12.58448 l 22.20014,8.93001 c 84.29429,33.90735 115.95848,46.70644 116.73265,47.1849 1.22872,0.75939 -21.00476,44.92037 -22.56352,44.81652 -0.69207,-0.0461 -6.03127,-3.60738 -11.8649,-7.91393 z"
         id="path3131"
         transform="scale(0.26458333)" />
      <path
         style="opacity:1;fill:#38445e;fill-opacity:1;stroke:#cd8b25;stroke-width:1.90895;stroke-miterlimit:4;stroke-dasharray:none;stroke-opacity:1"
         d="m 184.97601,380.25565 c 0,-0.43087 11.86744,-24.63665 26.37209,-53.79062 14.50466,-29.15398 33.81956,-68.12164 42.92202,-86.5948 9.10246,-18.47317 17.12239,-33.56517 17.82208,-33.53778 2.94918,0.11542 17.4269,7.0138 17.33167,8.25823 -0.10101,1.31999 -2.68883,10.07644 -22.17374,75.02956 -5.33333,17.77868 -11.28374,37.7797 -13.22313,44.44671 -6.50366,22.35743 -7.58863,25.64206 -8.7757,26.56739 -1.25324,0.97691 -57.75426,20.4047 -59.34214,20.4047 -0.51323,0 -0.93315,-0.35252 -0.93315,-0.78339 z"
         id="path3133"
         transform="scale(0.26458333)" />
      <path
         style="opacity:1;fill:#38445e;fill-opacity:1;stroke:#cd8b25;stroke-width:1.90895;stroke-miterlimit:4;stroke-dasharray:none;stroke-opacity:1"
         d="m 170.9108,407.57479 c 0.0423,-0.42727 2.20151,-4.64069 4.79822,-9.36315 l 4.7213,-8.5863 22.72844,-7.73245 c 12.50063,-4.25285 53.41181,-18.2741 90.91372,-31.15834 97.96429,-33.65682 109.31202,-37.4969 109.68979,-37.11913 0.6001,0.6001 12.53445,34.5555 12.5366,35.66889 10e-4,0.59138 -15.79419,4.77884 -35.10073,9.30547 -19.30654,4.52663 -48.73986,11.48696 -65.40738,15.4674 -16.66751,3.98044 -40.53237,9.64168 -53.033,12.58053 -12.50064,2.93886 -37.27463,8.78914 -55.05332,13.00064 -17.77868,4.21149 -33.34766,7.89487 -34.59772,8.18528 -1.25007,0.29041 -2.23823,0.17844 -2.19592,-0.24884 z"
         id="path3135"
         transform="scale(0.26458333)" />
      <path
         style="opacity:1;fill:#38445e;fill-opacity:1;stroke:#cd8b25;stroke-width:1.34983;stroke-miterlimit:4;stroke-dasharray:none;stroke-opacity:1"
         d="m 307.61137,338.96847 c 0.008,-0.5331 0.33354,-3.05856 0.72364,-5.61213 0.39011,-2.55357 1.34749,-9.30357 2.12751,-15 0.78003,-5.69643 1.87566,-13.57143 2.43475,-17.5 0.55909,-3.92857 1.53808,-10.83929 2.17554,-15.35714 0.63745,-4.51786 1.61998,-11.42858 2.18339,-15.35715 0.56341,-3.92857 1.50652,-10.51785 2.0958,-14.64285 1.84899,-12.94291 3.21308,-22.38693 3.69391,-25.57407 0.3675,-2.43595 0.70266,-2.98296 1.61458,-2.63516 9.29094,3.54359 24.94788,10.00113 25.6954,10.5978 0.77784,0.62088 0.88725,2.86055 0.54512,11.1584 -0.23543,5.70988 -0.63753,25.22183 -0.89357,43.35988 -0.41573,29.45167 -0.5886,33.01574 -1.61655,33.32847 -2.08811,0.63525 -38.26699,13.15582 -39.54388,13.6851 -0.83286,0.34523 -1.24521,0.19467 -1.23564,-0.45115 z"
         id="path3137"
         transform="scale(0.26458333)" />
      <path
         style="opacity:1;fill:#38445e;fill-opacity:1;stroke:#cd8b25;stroke-width:1.34983;stroke-miterlimit:4;stroke-dasharray:none;stroke-opacity:1"
         d="m 194.08477,471.89261 c -0.42541,-1.98362 -0.77348,-4.22709 -0.77348,-4.98549 0,-0.7584 -0.48137,-3.87651 -1.06972,-6.92913 -0.58834,-3.05262 -1.84918,-10.21094 -2.80185,-15.90737 -0.95268,-5.69642 -1.88013,-11 -2.06101,-11.78571 -0.18087,-0.78571 -0.56463,-3.19643 -0.85279,-5.35714 -0.28817,-2.16072 -0.96305,-6.01786 -1.49974,-8.57143 -1.57167,-7.47802 -1.57392,-7.47165 3.10654,-8.77227 13.30571,-3.69745 17.32143,-4.2384 17.32143,-2.33336 0,0.98647 5.98245,13.22006 25.07891,51.2842 l 8.51084,16.96429 h -22.09283 -22.09283 z"
         id="path3139"
         transform="scale(0.26458333)" />
      <path
         style="opacity:1;fill:#38445e;fill-opacity:1;stroke:#cd8b25;stroke-width:1.34983;stroke-miterlimit:4;stroke-dasharray:none;stroke-opacity:1"
         d="m 81.191152,442.82062 c 0.01798,-25.86225 0.204217,-32.43222 0.892858,-31.49755 2.353548,3.19441 17.440623,24.62751 26.82245,38.1047 9.37554,13.46815 11.56393,16.58379 13.54605,19.28571 1.1528,1.57143 2.65816,3.74107 3.34525,4.82143 l 1.24926,1.96429 H 104.10773 81.168436 Z"
         id="path3141"
         transform="scale(0.26458333)" />
      <path
         style="opacity:1;fill:#38445e;fill-opacity:1;stroke:#cd8b25;stroke-width:0.477237;stroke-miterlimit:4;stroke-dasharray:none;stroke-opacity:1"
         d="m 296.22522,475.01316 c 1.10501,-0.53805 2.80461,-1.33878 3.77688,-1.7794 0.97227,-0.44062 2.08949,-0.96636 2.48271,-1.1683 0.39322,-0.20195 0.83663,-0.36718 0.98534,-0.36718 0.14872,0 1.13388,-0.49494 2.18924,-1.09986 1.05537,-0.60493 2.71435,-1.40412 3.68662,-1.77597 0.97227,-0.37186 1.93823,-0.78086 2.14658,-0.90888 0.85372,-0.5246 3.46763,-1.77113 3.71397,-1.77113 0.14564,0 0.40626,-0.17046 0.57917,-0.37881 0.17291,-0.20834 0.51243,-0.3788 0.75448,-0.3788 0.24206,0 0.71717,-0.21794 1.0558,-0.48431 0.33863,-0.26637 1.03176,-0.56236 1.54029,-0.65776 0.50852,-0.0954 1.05619,-0.33203 1.21705,-0.52585 0.16085,-0.19381 0.40275,-0.35239 0.53755,-0.35239 0.13481,0 1.74029,-0.73247 3.56775,-1.62772 1.82746,-0.89525 3.63624,-1.70333 4.01951,-1.79574 0.38328,-0.0924 0.75041,-0.25466 0.81586,-0.36056 0.0654,-0.10589 0.71781,-0.47662 1.44971,-0.82384 0.73189,-0.34721 2.09657,-0.99553 3.03262,-1.44069 0.93605,-0.44517 1.75703,-0.89858 1.8244,-1.00758 0.0674,-0.10901 0.66521,-0.3447 1.32855,-0.52377 0.66333,-0.17907 1.38547,-0.47876 1.60475,-0.66599 0.21928,-0.18722 0.49327,-0.3404 0.60886,-0.3404 0.11559,0 1.75445,-0.74638 3.64191,-1.65862 1.88747,-0.91224 3.88633,-1.86268 4.44191,-2.11209 2.26366,-1.01618 3.55564,-1.61874 3.91434,-1.82559 0.90768,-0.52343 2.60663,-1.22517 2.71174,-1.12006 0.16018,0.16018 -1.25781,2.16896 -2.05356,2.90917 -0.362,0.33673 -0.65818,0.75703 -0.65818,0.93401 0,0.17697 -0.25569,0.60904 -0.56821,0.96015 -0.31251,0.35111 -0.82833,1.01041 -1.14627,1.46511 -0.31794,0.4547 -1.68164,2.29045 -3.03046,4.07946 -2.44063,3.23714 -3.50344,4.71075 -6.07411,8.42195 -0.74187,1.07103 -1.79306,2.47787 -2.33597,3.12632 -0.54291,0.64844 -0.98711,1.26421 -0.98711,1.36837 0,0.10416 -0.60968,0.9407 -1.35485,1.85899 -0.74517,0.91828 -1.48784,1.9253 -1.65038,2.23782 l -0.29554,0.56821 H 313.95714 294.2161 Z"
         id="path3145"
         transform="scale(0.26458333)" />
      <path
         style="opacity:1;fill:#38445e;fill-opacity:1;stroke:#cd8b25;stroke-width:0.954475;stroke-miterlimit:4;stroke-dasharray:none;stroke-opacity:1"
         d="m 386.34553,454.87593 c 0.004,-0.20835 4.37913,-4.8184 9.72272,-10.24458 l 9.71561,-9.86577 3.283,-0.65836 c 1.80565,-0.3621 3.8512,-0.83773 4.54568,-1.05696 0.69448,-0.21924 2.51276,-0.67524 4.04061,-1.01334 1.52786,-0.3381 3.45978,-0.80547 4.29315,-1.0386 0.83338,-0.23313 2.42437,-0.6662 3.53554,-0.96238 1.93466,-0.51569 22.04835,-5.39115 35.86041,-8.69239 3.6113,-0.86314 7.02056,-1.75134 7.57615,-1.97378 0.55558,-0.22244 1.692,-0.54537 2.52538,-0.71763 0.83337,-0.17225 2.42436,-0.54272 3.53553,-0.82327 1.11117,-0.28055 2.92944,-0.69312 4.04061,-0.91682 2.28022,-0.45905 26.31984,-6.3638 29.04189,-7.13343 3.55558,-1.00531 8.38124,-2.12001 10.23096,-2.3633 1.04346,-0.13724 2.02283,-0.45281 2.17638,-0.70126 0.15355,-0.24845 0.9507,-0.45172 1.77146,-0.45172 0.82075,0 1.88693,-0.20722 2.3693,-0.46049 0.48237,-0.25326 2.24073,-0.73216 3.90749,-1.06421 1.66675,-0.33205 3.59866,-0.80177 4.29314,-1.04383 0.69448,-0.24206 4.67196,-1.25414 8.83884,-2.24907 17.90613,-4.27546 24.33561,-5.8396 25.75889,-6.2665 0.83338,-0.24997 6.85641,-1.75274 13.38452,-3.33949 6.52811,-1.58675 13.91485,-3.40206 16.41498,-4.03402 4.14174,-1.0469 4.60179,-1.07716 5.17703,-0.34054 0.34724,0.44466 0.63135,1.11149 0.63135,1.48186 0,0.37036 1.02508,4.24757 2.27796,8.61603 1.25287,4.36845 2.5357,8.85178 2.85073,9.96295 0.31503,1.11117 0.87636,2.98069 1.24738,4.1545 0.37103,1.17381 1.11894,3.78758 1.662,5.80838 0.54307,2.0208 1.54353,5.54776 2.22326,7.83769 l 1.23586,4.16351 -1.83426,0.44456 c -1.51561,0.36733 -15.1202,1.92421 -45.27081,5.1807 -9.32103,1.00674 -13.37948,1.44981 -17.67767,1.92993 -4.781,0.53404 -11.59282,1.27617 -19.1929,2.091 -8.6583,0.92829 -12.63501,1.39171 -14.39467,1.67747 -0.97227,0.15789 -3.01783,0.38902 -4.54569,0.51363 -1.52785,0.12461 -3.57341,0.34727 -4.54569,0.49481 -1.56989,0.23822 -6.95464,0.84047 -13.63705,1.52521 -8.85477,0.90735 -38.22648,4.13779 -43.94164,4.83292 -2.08344,0.25341 -6.2882,0.71109 -9.34391,1.01707 -3.05571,0.30598 -6.23769,0.67529 -7.07107,0.82069 -0.83338,0.1454 -3.67443,0.47414 -6.31345,0.73054 -2.63903,0.2564 -6.73014,0.70352 -9.09138,0.99359 -2.36123,0.29008 -6.45234,0.74303 -9.09137,1.00655 -2.63902,0.26353 -5.821,0.60506 -7.07107,0.75896 -16.42772,2.02248 -15.15528,1.90745 -15.14518,1.36919 z"
         id="path3147"
         transform="scale(0.26458333)" />
      <path
         style="opacity:1;fill:#376c8c;fill-opacity:1;stroke:#cd8b25;stroke-width:0.954475;stroke-miterlimit:4;stroke-dasharray:none;stroke-opacity:1"
         d="m 371.81508,469.30919 c 3.55355,-3.68074 6.78306,-6.88493 7.17667,-7.12041 0.39362,-0.23548 2.57127,-0.51893 4.83922,-0.62989 2.26795,-0.11095 5.48725,-0.4201 7.15401,-0.68698 1.66675,-0.26689 6.32608,-0.84324 10.35406,-1.28079 4.02798,-0.43754 9.02824,-1.00676 11.11168,-1.26492 2.08344,-0.25816 5.26542,-0.61038 7.07106,-0.78271 3.34011,-0.31878 8.25101,-0.85636 16.41498,-1.79691 6.92375,-0.79766 13.308,-1.46483 16.66752,-1.74181 1.66675,-0.13741 3.71231,-0.36504 4.54569,-0.50585 1.35193,-0.22841 5.67929,-0.74958 12.37437,-1.4903 7.9407,-0.87854 12.18042,-1.3324 14.39467,-1.54095 5.04642,-0.47531 11.28826,-1.16417 19.69797,-2.17389 10.31608,-1.23861 21.6635,-2.54533 27.52666,-3.16983 2.36123,-0.25151 6.22507,-0.68585 8.5863,-0.96522 4.39112,-0.51953 9.00361,-1.02748 17.93021,-1.97458 2.77791,-0.29473 7.09632,-0.76836 9.59644,-1.05251 4.3033,-0.48907 7.60048,-0.84206 18.18275,-1.94661 2.50013,-0.26096 8.29588,-0.91093 12.87945,-1.44439 4.58356,-0.53346 8.78832,-0.98708 9.34391,-1.00804 0.55558,-0.021 2.44996,-0.27088 4.20975,-0.55537 1.75977,-0.2845 3.51103,-0.39776 3.89168,-0.25169 0.38065,0.14606 1.05025,1.55206 1.48799,3.12442 0.43775,1.57237 1.01616,3.38093 1.28535,4.01903 0.26919,0.63811 0.48944,1.70429 0.48944,2.36931 0,0.66501 0.22729,1.34958 0.50508,1.52127 0.27779,0.17168 0.50508,0.79399 0.50508,1.38291 0,0.98696 0.59564,3.20201 1.5296,5.68816 0.20871,0.55558 0.62186,1.91929 0.91811,3.03045 0.29624,1.11117 0.87172,3.27037 1.27883,4.79823 0.40712,1.52785 1.43982,5.10039 2.2949,7.93896 0.85509,2.83857 1.5547,5.39552 1.5547,5.68211 0,0.3567 -41.36351,0.52106 -131.12957,0.52106 H 365.35407 Z"
         id="path3207"
         transform="scale(0.26458333)" />
      <path
         style="opacity:1;fill:#38445e;fill-opacity:1;stroke:#cd8b25;stroke-width:0.954475;stroke-miterlimit:4;stroke-dasharray:none;stroke-opacity:1"
         d="m 530.83191,356.64719 c -0.24727,-0.62976 -1.0544,-3.19058 -1.79362,-5.6907 -0.73923,-2.50013 -2.00728,-6.70489 -2.8179,-9.34392 -0.81062,-2.63902 -1.95417,-6.38921 -2.54123,-8.33375 -0.58706,-1.94455 -1.50007,-4.80073 -2.02891,-6.34709 -0.52885,-1.54635 -0.96154,-3.26234 -0.96154,-3.81332 0,-0.55098 -0.18776,-1.2177 -0.41725,-1.4816 -0.22949,-0.2639 -0.68215,-1.38896 -1.00591,-2.50013 -1.08807,-3.73427 -2.54608,-8.5403 -4.82662,-15.9099 -1.24646,-4.02799 -2.75971,-9.02824 -3.36277,-11.11168 -0.60306,-2.08344 -1.27767,-4.24264 -1.49912,-4.79822 -0.22146,-0.55559 -0.9003,-2.71479 -1.50854,-4.79823 -1.39325,-4.77241 -1.74632,-5.93618 -3.21788,-10.6066 -0.65645,-2.08344 -1.71136,-5.49271 -2.34425,-7.57615 -0.63289,-2.08343 -1.54221,-5.03813 -2.02071,-6.56599 -0.4785,-1.52785 -1.35439,-4.36891 -1.94642,-6.31345 -0.59203,-1.94454 -1.77773,-5.80838 -2.63488,-8.5863 -0.85715,-2.77792 -1.75273,-5.73261 -1.99017,-6.56599 -0.81731,-2.86852 -4.09229,-13.64176 -4.99002,-16.41498 -0.49459,-1.52785 -1.14258,-3.57341 -1.43998,-4.54568 -0.29739,-0.97228 -1.4523,-4.72247 -2.56645,-8.33376 -3.46356,-11.22643 -5.68956,-18.54742 -6.75717,-22.22336 -0.56476,-1.94454 -1.22748,-3.9302 -1.4727,-4.41256 -0.24523,-0.48237 -0.44587,-1.22413 -0.44587,-1.64835 0,-0.42423 -0.20394,-1.16599 -0.45319,-1.64835 -0.24926,-0.48237 -0.92976,-2.46803 -1.51222,-4.41257 -0.58246,-1.94454 -2.53773,-8.38594 -4.34503,-14.31421 -1.8073,-5.92828 -3.28601,-11.099 -3.28601,-11.49049 0,-0.57692 1.28181,-0.7118 6.76446,-0.7118 h 6.76445 l 9.3195,18.56155 c 5.12572,10.20885 18.35538,36.51701 29.39923,58.46258 50.06121,99.47808 56.8129,113.03916 56.51725,113.51753 -0.17307,0.28003 -2.72621,1.62654 -5.67365,2.99226 -6.55131,3.0356 -9.22319,4.30032 -12.17751,5.76417 -1.25006,0.6194 -5.56846,2.64388 -9.59645,4.49884 -8.50763,3.91792 -14.52534,6.73302 -15.79054,7.38687 -0.69267,0.35796 -0.99079,0.20568 -1.34038,-0.68467 z"
         id="path3149"
         transform="scale(0.26458333)" />
      <path
         style="opacity:1;fill:#38445e;fill-opacity:1;stroke:#cd8b25;stroke-width:0.954475;stroke-miterlimit:4;stroke-dasharray:none;stroke-opacity:1"
         d="m 542.46967,256.07766 c -0.49279,-0.59377 -9.25897,-17.81216 -10.49704,-20.61811 -0.57715,-1.30803 -0.51494,-1.38841 2.01523,-2.60412 4.27356,-2.05338 10.4476,-4.88502 10.65118,-4.88502 0.10428,0 2.83992,-1.25006 6.0792,-2.77792 3.23928,-1.52785 5.96747,-2.77792 6.06263,-2.77792 0.0952,0 2.0707,-0.88344 4.39006,-1.9632 3.56873,-1.66139 14.0279,-6.40482 22.65232,-10.27324 1.25006,-0.56071 4.3816,-2.01436 6.95895,-3.23035 2.57737,-1.21598 4.77313,-2.21088 4.87948,-2.21088 0.10635,0 1.97507,-0.81551 4.15272,-1.81226 2.17765,-0.99674 4.64121,-2.11306 5.47459,-2.48072 0.83338,-0.36765 3.74233,-1.71934 6.46433,-3.00374 2.72201,-1.28441 7.94955,-3.6644 11.61676,-5.28887 3.66721,-1.62446 8.59956,-3.86483 10.9608,-4.97858 5.87421,-2.77078 10.08182,-4.65918 10.38124,-4.65918 0.13738,0 0.18747,3.78268 0.1113,8.40596 l -0.13848,8.40597 -3.03046,1.61944 c -1.66675,0.8907 -3.88277,2.10827 -4.92449,2.70572 -1.04172,0.59744 -2.74635,1.56873 -3.78807,2.15842 -1.04172,0.58968 -3.65867,2.0733 -5.81544,3.29694 -2.15676,1.22363 -4.99782,2.81923 -6.31345,3.54578 -1.31563,0.72654 -4.6649,2.62465 -7.44282,4.21803 -5.95666,3.41665 -18.30987,10.36333 -30.30458,17.04141 -4.72246,2.62925 -8.81358,4.95123 -9.09137,5.15996 -0.27779,0.20873 -3.57341,2.08677 -7.32361,4.17343 -3.75019,2.08664 -7.72766,4.30869 -8.83883,4.93786 -1.11117,0.62918 -3.04308,1.71204 -4.29315,2.40635 -1.25006,0.69431 -4.13156,2.35302 -6.40332,3.68601 -3.15508,1.85129 -4.25214,2.27703 -4.64568,1.80283 z"
         id="path3151"
         transform="scale(0.26458333)" />
      <path
         style="opacity:1;fill:#376c8c;fill-opacity:1;stroke:#cd8b25;stroke-width:0.954475;stroke-miterlimit:4;stroke-dasharray:none;stroke-opacity:1"
         d="m 574.16643,319.71721 -6.8789,-13.74224 38.82102,-38.87601 38.82102,-38.87601 -0.12232,38.07826 c -0.10676,33.2384 -0.2186,38.13162 -0.87993,38.49818 -0.41668,0.23096 -2.80317,1.36192 -5.3033,2.51324 -2.50012,1.15132 -6.70488,3.11576 -9.34391,4.36542 -2.63902,1.24966 -6.16193,2.90191 -7.82868,3.67166 -1.66675,0.76976 -5.95547,2.78905 -9.53049,4.4873 -3.57502,1.69826 -6.56796,3.08774 -6.65097,3.08774 -0.083,0 -3.06739,1.39256 -6.63195,3.09457 -12.86723,6.14387 -15.93223,7.51143 -16.75549,7.47609 -0.57804,-0.0248 -2.96661,-4.28994 -7.7161,-13.7782 z"
         id="path3153"
         transform="scale(0.26458333)" />
      <path
         style="opacity:1;fill:#376c8c;fill-opacity:1;stroke:#cd8b25;stroke-width:0.954475;stroke-miterlimit:4;stroke-dasharray:none;stroke-opacity:1"
         d="m 433.05798,176.13511 c -1.66675,-0.39549 -4.28052,-0.93288 -5.80838,-1.1942 -1.52785,-0.26131 -3.91434,-0.69183 -5.3033,-0.9567 -3.6684,-0.69956 -8.2174,-1.55142 -11.11168,-2.08082 -3.13872,-0.5741 -7.36977,-1.39703 -10.35406,-2.01383 -1.25006,-0.25836 -3.06834,-0.59822 -4.04061,-0.75524 -2.03726,-0.32902 -6.41176,-1.15911 -9.34391,-1.77306 -2.95101,-0.6179 -16.24277,-3.24418 -19.44544,-3.84216 -0.69448,-0.12967 -3.08096,-0.59552 -5.3033,-1.03522 -5.12401,-1.01382 -7.9949,-1.52724 -10.85914,-1.94201 -1.25006,-0.18103 -2.72741,-0.52609 -3.28299,-0.76682 -0.55559,-0.24072 -1.91929,-0.55267 -3.03046,-0.69321 -1.11117,-0.14055 -3.15673,-0.47157 -4.54569,-0.7356 -15.2554,-2.89995 -25.38941,-4.89586 -31.56726,-6.21725 -2.63903,-0.56446 -6.16193,-1.22785 -7.82869,-1.4742 -1.66675,-0.24634 -4.16688,-0.68972 -5.55584,-0.98528 -5.26365,-1.12005 -10.7119,-2.15193 -15.65736,-2.96545 -1.38896,-0.22848 31.90819,-0.39023 73.99367,-0.35944 l 76.51906,0.056 1.1538,5.55584 c 0.63459,3.05572 1.37428,6.80591 1.64376,8.33376 0.26948,1.52786 0.72666,3.91434 1.01596,5.3033 1.45372,6.97942 2.20743,11.38558 1.93509,11.31246 -0.10602,-0.0285 -1.55648,-0.37534 -3.22323,-0.77084 z"
         id="path3155"
         transform="scale(0.26458333)" />
      <path
         style="opacity:1;fill:#376c8c;fill-opacity:1;stroke:#cd8b25;stroke-width:0.954475;stroke-miterlimit:4;stroke-dasharray:none;stroke-opacity:1"
         d="m 482.07053,380.37718 c -0.11038,-0.34724 -1.02005,-4.94975 -2.02149,-10.2278 -1.00144,-5.27804 -2.0248,-10.61922 -2.27415,-11.86929 -0.24934,-1.25006 -0.93811,-4.88661 -1.5306,-8.08122 -0.59249,-3.19461 -1.28996,-6.20304 -1.54993,-6.68541 -0.25996,-0.48236 -0.47266,-1.88948 -0.47266,-3.12691 0,-1.23744 -0.22729,-2.39036 -0.50508,-2.56205 -0.27779,-0.17168 -0.50508,-1.27606 -0.50508,-2.45417 0,-1.17811 -0.20633,-2.35794 -0.45851,-2.62184 -0.25218,-0.26391 -0.57502,-1.61625 -0.71742,-3.00521 -0.14239,-1.38896 -0.47504,-3.54816 -0.73922,-4.79822 -0.26418,-1.25007 -1.30888,-6.47761 -2.32155,-11.61676 -1.01266,-5.13915 -2.31197,-11.61675 -2.88734,-14.39467 -1.43639,-6.93496 -1.971,-9.75591 -2.29727,-12.12183 -0.15323,-1.11117 -0.4826,-2.23623 -0.73194,-2.50013 -0.24934,-0.2639 -0.45335,-1.52533 -0.45335,-2.80317 0,-1.27785 -0.20633,-2.53927 -0.45851,-2.80318 -0.25219,-0.2639 -0.57818,-1.61624 -0.72442,-3.0052 -0.24158,-2.29436 -0.70477,-4.9139 -1.60756,-9.09137 -0.1801,-0.83338 -0.97418,-4.81085 -1.76461,-8.83884 -1.35299,-6.89472 -4.10694,-20.72056 -5.13089,-25.75889 -0.89741,-4.41571 -1.46466,-7.35481 -1.94961,-10.10152 -1.03574,-5.86642 -3.00251,-16.01629 -3.52331,-18.18275 -0.23373,-0.97227 -0.65729,-3.01783 -0.94124,-4.54568 -2.88722,-15.53511 -6.26916,-32.87941 -6.65466,-34.12851 -0.26328,-0.8531 -0.4787,-2.22817 -0.4787,-3.05571 0,-0.82755 -0.20524,-1.72055 -0.4561,-1.98445 -0.25086,-0.2639 -0.57843,-1.5026 -0.72794,-2.75267 -0.1495,-1.25006 -0.52193,-3.5229 -0.82762,-5.05076 -0.30569,-1.52785 -0.68483,-3.51659 -0.84255,-4.41942 l -0.28676,-1.64149 h 12.09625 12.09624 l 0.63515,2.14657 c 0.34933,1.18062 0.84028,2.54124 1.09099,3.02361 0.25072,0.48236 0.45585,1.25452 0.45585,1.71591 0,0.46138 0.4297,2.11227 0.95489,3.66865 0.98,2.90423 2.2477,6.92793 5.10841,16.2143 0.89854,2.91681 1.8079,5.75787 2.02079,6.31345 0.21289,0.55559 0.66241,2.03293 0.99894,3.283 0.33653,1.25006 0.81701,2.66751 1.06772,3.14987 0.25072,0.48237 0.45585,1.43491 0.45585,2.11677 0,0.68185 0.22729,1.3802 0.50508,1.55189 0.27779,0.17168 0.50508,0.82907 0.50508,1.46086 0,0.63178 0.17031,1.31901 0.37846,1.52717 0.20816,0.20815 0.64908,1.43928 0.97984,2.73583 0.65967,2.58593 1.82534,6.55867 2.61826,8.92335 0.27945,0.83338 1.00718,3.21986 1.61717,5.3033 0.60999,2.08344 1.30558,4.18273 1.54575,4.6651 0.24016,0.48237 0.43666,1.32127 0.43666,1.86423 0,0.54296 0.22729,1.12767 0.50508,1.29935 0.27779,0.17169 0.50507,0.795 0.50507,1.38514 0,0.59015 0.42413,2.33818 0.94251,3.88454 0.51837,1.54635 1.22613,3.83432 1.57279,5.08439 0.34667,1.25006 0.81565,2.72741 1.04218,3.28299 0.22653,0.55559 0.89469,2.71479 1.48479,4.79823 0.59011,2.08344 1.40163,4.53446 1.8034,5.4467 0.40176,0.91225 0.73048,2.09208 0.73048,2.62185 0,0.52976 0.22728,1.10367 0.50507,1.27536 0.2778,0.17168 0.50508,0.78029 0.50508,1.35247 0,1.07772 1.79824,7.07461 2.58359,8.61593 0.24578,0.48237 0.44687,1.32127 0.44687,1.86423 0,0.54296 0.22728,1.12767 0.50507,1.29935 0.2778,0.17169 0.50508,1.04878 0.50508,1.9491 0,0.90032 0.18776,1.85286 0.41725,2.11677 0.38024,0.43724 0.71092,1.43727 2.24639,6.79327 0.27874,0.97227 0.68224,2.22234 0.89669,2.77792 0.21444,0.55558 0.99247,3.05571 1.72895,5.55584 2.5066,8.50914 5.40483,17.67529 5.86677,18.5547 0.25339,0.48237 0.4607,1.33776 0.4607,1.90089 0,0.56312 0.19939,1.41852 0.44308,1.90089 0.7372,1.45923 1.57723,4.41782 1.57723,5.55503 0,0.58892 0.22728,1.21123 0.50508,1.38291 0.27779,0.17169 0.50507,0.7564 0.50507,1.29936 0,0.54295 0.19528,1.38186 0.43395,1.86422 0.23867,0.48237 1.06358,2.92259 1.83314,5.42272 0.76955,2.50013 1.79659,5.79575 2.28232,7.32361 1.96018,6.16569 3.02674,9.91717 3.02674,10.6461 0,0.42274 0.18776,0.98454 0.41725,1.24844 0.22949,0.2639 0.71178,1.5026 1.07175,2.75267 0.35997,1.25006 1.17649,3.97747 1.81447,6.06091 0.63798,2.08344 1.65578,5.49271 2.26178,7.57615 0.60599,2.08344 1.56607,5.1004 2.13351,6.70435 0.56744,1.60396 0.94244,2.98914 0.83335,3.07819 -0.18443,0.15053 -4.49741,2.21892 -14.34049,6.87733 -2.22234,1.05175 -6.21337,2.96109 -8.86897,4.24296 -2.65559,1.28187 -4.97577,2.33068 -5.15595,2.33068 -0.18017,0 -3.57588,1.59079 -7.54601,3.53509 -3.97013,1.9443 -7.39601,3.53529 -7.61308,3.53553 -0.21706,2.5e-4 -0.48497,-0.28366 -0.59534,-0.6309 z"
         id="path3157"
         transform="scale(0.26458333)" />
      <path
         style="opacity:1;fill:#376c8c;fill-opacity:1;stroke:#cd8b25;stroke-width:0.954475;stroke-miterlimit:4;stroke-dasharray:none;stroke-opacity:1"
         d="m 527.60556,228.58413 c -0.44872,-0.49583 -3.34815,-5.9566 -6.44317,-12.13505 -4.06919,-8.12313 -5.54267,-11.54453 -5.3216,-12.35673 0.16814,-0.61777 3.15369,-3.85062 6.63455,-7.18413 9.89123,-9.4725 29.25503,-28.35936 39.7435,-38.7646 5.25026,-5.2086 9.71934,-9.47018 9.93129,-9.47018 0.21194,0 0.91916,-0.56821 1.57159,-1.26269 l 1.18624,-1.26269 h 35.01476 35.01476 v 15.30458 15.30459 l -2.65165,1.19538 c -1.45841,0.65745 -3.67443,1.62854 -4.9245,2.15797 -1.25006,0.52942 -4.38638,1.96853 -6.9696,3.19801 -2.58322,1.22948 -4.85606,2.23838 -5.05076,2.24201 -0.1947,0.004 -2.85413,1.25302 -5.90984,2.77642 -3.05572,1.52341 -5.78313,2.77226 -6.06092,2.77523 -0.27779,0.003 -2.76311,1.14006 -5.52293,2.52687 -2.75982,1.38682 -5.18991,2.52149 -5.40021,2.52149 -0.2103,0 -3.03268,1.25006 -6.27196,2.77792 -3.23929,1.52785 -6.03752,2.77792 -6.21831,2.77792 -0.18078,0 -1.91889,0.76764 -3.86247,1.70586 -1.94358,0.93823 -4.67019,2.21423 -6.05915,2.83555 -1.38896,0.62132 -3.77545,1.68744 -5.3033,2.36915 -1.52786,0.68171 -3.85586,1.7922 -5.17333,2.46776 -1.31748,0.67555 -2.60212,1.22828 -2.85477,1.22828 -0.25264,0 -3.54648,1.47735 -7.31964,3.28299 -3.77316,1.80565 -6.96395,3.283 -7.09063,3.283 -0.12669,0 -2.16182,0.90914 -4.52252,2.02031 -2.3607,1.11116 -4.40845,2.0203 -4.55055,2.0203 -0.14211,0 -2.59929,1.1092 -5.4604,2.4649 -5.99856,2.84232 -8.7961,4.10109 -9.11443,4.10109 -0.1233,0 -0.59133,-0.40568 -1.04005,-0.90151 z"
         id="path3159"
         transform="scale(0.26458333)" />
      <path
         style="opacity:1;fill:#376c8c;fill-opacity:1;stroke:#cd8b25;stroke-width:0.954475;stroke-miterlimit:4;stroke-dasharray:none;stroke-opacity:1"
         d="m 580.80565,330.92882 c -0.5732,-0.92984 -3.67651,-6.8931 -6.89624,-13.25169 l -5.85405,-11.56107 38.16377,-38.16378 38.16378,-38.16378 -0.3001,36.34033 c -0.16506,19.98719 -0.46999,36.80114 -0.67764,37.36436 -0.26656,0.72303 -4.14236,2.78835 -13.18594,7.02647 -35.99696,16.86938 -46.05806,21.51917 -47.16217,21.79629 -0.98471,0.24714 -1.40272,-0.0104 -2.25141,-1.38713 z"
         id="path3161"
         transform="scale(0.26458333)" />
      <path
         style="opacity:1;fill:#376c8c;fill-opacity:1;stroke:#cd8b25;stroke-width:0.954475;stroke-miterlimit:4;stroke-dasharray:none;stroke-opacity:1"
         d="m 439.77822,397.0447 c -1.12957,-3.58097 -4.40214,-13.01525 -4.94944,-14.26841 -0.74839,-1.71362 -3.64248,-10.03578 -3.91066,-11.24541 -0.13948,-0.62914 -0.45374,-1.26758 -0.69836,-1.41877 -0.24463,-0.15119 -0.44478,-0.81626 -0.44478,-1.47795 0,-0.6617 -0.22728,-1.34355 -0.50507,-1.51523 -0.27779,-0.17169 -0.50508,-0.7564 -0.50508,-1.29936 0,-0.54295 -0.22012,-1.38186 -0.48916,-1.86422 -0.26903,-0.48237 -0.82329,-1.89981 -1.23168,-3.14988 -0.40839,-1.25006 -2.24863,-6.59124 -4.08942,-11.86929 -1.84079,-5.27805 -3.92024,-11.30108 -4.62098,-13.38452 -0.70075,-2.08344 -1.48145,-4.00399 -1.73488,-4.2679 -0.25343,-0.2639 -0.46078,-0.98916 -0.46078,-1.61168 0,-0.62253 -0.22729,-1.27234 -0.50508,-1.44403 -0.27779,-0.17168 -0.50508,-0.85354 -0.50508,-1.51523 0,-0.66169 -0.22728,-1.34354 -0.50507,-1.51522 -0.2778,-0.17169 -0.50508,-0.7564 -0.50508,-1.29936 0,-0.54296 -0.2193,-1.38186 -0.48733,-1.86423 -0.50729,-0.91296 -4.71875,-12.73825 -6.87789,-19.31231 -0.68427,-2.08344 -1.46622,-4.18273 -1.73768,-4.6651 -0.27145,-0.48237 -0.49355,-1.32127 -0.49355,-1.86423 0,-0.54296 -0.22728,-1.12767 -0.50507,-1.29935 -0.2778,-0.17169 -0.50508,-0.75639 -0.50508,-1.29935 0,-0.54296 -0.22729,-1.43868 -0.50508,-1.9905 -0.27779,-0.55182 -0.73236,-1.45478 -1.01015,-2.0066 -0.27779,-0.55181 -0.50508,-1.35039 -0.50508,-1.77462 0,-0.42423 -0.2189,-1.16598 -0.48646,-1.64835 -0.26755,-0.48237 -1.6156,-4.17265 -2.99565,-8.20064 -4.61533,-13.47079 -6.17196,-17.92287 -6.62234,-18.94036 -0.24592,-0.55558 -1.80212,-4.98762 -3.45821,-9.84898 -1.6561,-4.86136 -4.18715,-12.13446 -5.62458,-16.16244 -1.43742,-4.02799 -2.72755,-7.77818 -2.86696,-8.33376 -0.13941,-0.55559 -0.4488,-1.46472 -0.68754,-2.02031 -0.53912,-1.25458 -3.70541,-10.39907 -4.54697,-13.13198 -0.34217,-1.11117 -0.79355,-2.24759 -1.00306,-2.52538 -0.49717,-0.6592 -1.16447,-3.78807 -0.80789,-3.78807 0.15126,0 1.24892,0.30668 2.43924,0.68152 1.19032,0.37485 3.9825,1.19418 6.20483,1.82074 2.22234,0.62657 4.43528,1.34266 4.91764,1.59132 0.48237,0.24866 1.32127,0.4521 1.86423,0.4521 0.54296,0 1.12767,0.22729 1.29935,0.50508 0.17169,0.27779 0.87004,0.50507 1.5519,0.50507 0.68185,0 1.63439,0.21003 2.11676,0.46673 0.48237,0.25671 3.27297,1.20022 6.20134,2.0967 l 5.32431,1.62997 1.38221,4.59556 c 0.76022,2.52756 1.69885,5.73199 2.08585,7.12095 2.05405,7.37206 2.43231,8.6702 2.79633,9.59645 0.21834,0.55558 0.67653,2.03293 1.01821,3.28299 0.34167,1.25007 0.79578,2.84106 1.00914,3.53554 0.21336,0.69448 0.66793,2.28547 1.01015,3.53553 0.34223,1.25006 0.7968,2.84105 1.01016,3.53553 0.21335,0.69448 0.67328,2.28547 1.02205,3.53554 0.62562,2.24232 1.58981,5.48664 4.27802,14.39467 1.32118,4.37808 1.64311,5.48928 2.70704,9.34391 0.26836,0.97227 0.9791,3.4724 1.57941,5.55584 0.60032,2.08344 1.20618,4.35628 1.34637,5.05076 0.14018,0.69448 0.43913,1.71726 0.66433,2.27285 0.22521,0.55558 0.66075,1.91929 0.96788,3.03046 0.30712,1.11116 1.02516,3.61129 1.59563,5.55583 0.57048,1.94455 1.27774,4.44468 1.5717,5.55584 0.29396,1.11117 0.82245,2.92945 1.17442,4.04061 0.35197,1.11117 0.91883,3.04309 1.25969,4.29315 0.34085,1.25007 0.82487,2.66751 1.07558,3.14987 0.25072,0.48237 0.45585,1.33777 0.45585,1.90089 0,0.56313 0.19939,1.41853 0.44307,1.90089 0.42894,0.84904 0.74577,1.87563 2.06327,6.68541 0.34241,1.25006 0.82771,2.66751 1.07842,3.14987 0.25072,0.48237 0.45585,1.23034 0.45585,1.66216 0,0.43182 0.43559,2.19636 0.96797,3.92119 0.53238,1.72485 1.78787,5.97713 2.78998,9.44953 1.61837,5.60779 3.16586,10.84772 4.32573,14.64721 0.21201,0.69448 0.66547,2.28547 1.00769,3.53553 0.34223,1.25007 0.7968,2.84106 1.01016,3.53554 0.21336,0.69448 0.66793,2.28547 1.01015,3.53553 0.34222,1.25006 0.79983,2.84105 1.01691,3.53553 0.21706,0.69448 0.74288,2.51276 1.16848,4.04061 1.16167,4.17029 3.80258,13.16242 4.41214,15.02308 0.29524,0.9012 0.39817,1.86285 0.22874,2.137 -0.16944,0.27415 -1.83148,1.21353 -3.69343,2.08751 -8.30205,3.89692 -10.80526,4.99608 -11.37805,4.99608 -0.33721,0 -0.9895,-1.19325 -1.44953,-2.65165 z"
         id="path3163"
         transform="scale(0.26458333)" />
      <path
         style="opacity:1;fill:#376c8c;fill-opacity:1;stroke:#cd8b25;stroke-width:0.954475;stroke-miterlimit:4;stroke-dasharray:none;stroke-opacity:1"
         d="m 281.24392,473.56375 c -0.0213,-0.76393 -0.1116,-1.72989 -0.20077,-2.14657 -0.0892,-0.41669 -0.5346,-3.1441 -0.98985,-6.06092 -0.45524,-2.91681 -1.27685,-8.14435 -1.82579,-11.61675 -0.54894,-3.4724 -1.1276,-7.44988 -1.28592,-8.83884 -0.15831,-1.38896 -0.52408,-3.15062 -0.81282,-3.91479 -0.62924,-1.66537 -0.01,-2.63919 2.00026,-3.14364 0.7429,-0.18645 2.26774,-0.74107 3.38855,-1.23249 1.1208,-0.49141 2.83332,-1.17959 3.80559,-1.52928 1.65754,-0.59616 2.32299,-0.85336 5.17703,-2.00097 0.62503,-0.25132 3.06834,-1.18091 5.42957,-2.06574 3.92378,-1.47037 8.22451,-3.13356 19.44544,-7.51996 2.22233,-0.86874 4.21355,-1.57831 4.42492,-1.57681 0.21137,0.002 1.46144,-0.47451 2.77792,-1.05778 3.00853,-1.33293 3.71207,-1.61461 7.44437,-2.98063 1.66675,-0.61002 4.30894,-1.65496 5.87154,-2.32208 1.56259,-0.66712 3.00683,-1.21294 3.20942,-1.21294 0.47441,0 13.36744,-4.95799 14.5245,-5.58538 0.48237,-0.26154 1.11838,-0.47554 1.41336,-0.47554 0.29498,0 1.47718,-0.45457 2.62711,-1.01015 1.14992,-0.55558 2.39209,-1.01015 2.76037,-1.01015 0.36828,0 1.06426,-0.20077 1.54663,-0.44615 1.62665,-0.82749 2.25659,-1.07534 15.52424,-6.10828 3.05571,-1.15915 6.01041,-2.28739 6.56599,-2.5072 2.66553,-1.05461 3.83598,-1.52993 7.44988,-3.02539 0.62503,-0.25864 3.40926,-1.30014 6.18718,-2.31443 2.77792,-1.0143 6.07354,-2.25733 7.32361,-2.76229 1.25006,-0.50496 4.20476,-1.6483 6.56599,-2.54076 2.36123,-0.89246 5.25663,-2.05159 6.43422,-2.57583 1.17759,-0.52425 2.47106,-0.95318 2.87438,-0.95318 0.40332,0 0.87378,-0.22729 1.04546,-0.50508 0.17169,-0.27779 0.85354,-0.50507 1.51523,-0.50507 0.66169,0 1.34354,-0.22729 1.51523,-0.50508 0.52467,-0.84894 2.6392,-0.57503 2.92431,0.37881 0.14532,0.48613 1.3199,3.83858 2.61018,7.44987 1.29029,3.6113 2.68242,7.58877 3.09362,8.83884 0.4112,1.25006 0.99278,2.70756 1.29239,3.23889 0.44523,0.78956 0.32698,1.13352 -0.64726,1.8828 -0.65561,0.50422 -1.35544,0.92181 -1.55518,0.92799 -0.19974,0.006 -4.51814,1.96764 -9.59645,4.35879 -5.07831,2.39116 -10.25607,4.81216 -11.50613,5.38001 -1.25006,0.56784 -4.88661,2.27144 -8.08122,3.78579 -3.19461,1.51434 -7.17208,3.38813 -8.83884,4.16398 -1.66675,0.77584 -5.64422,2.65214 -8.83883,4.16955 -3.19461,1.5174 -7.17208,3.38242 -8.83884,4.14448 -2.88887,1.32082 -7.78317,3.62427 -16.66751,7.84438 -2.22234,1.05563 -5.51796,2.60286 -7.32361,3.4383 -3.90544,1.80698 -12.61931,5.91276 -18.94036,8.92428 -2.50013,1.19113 -5.79575,2.74077 -7.3236,3.44363 -2.79522,1.2859 -10.93948,5.14366 -19.53793,9.2547 -2.551,1.21966 -4.74019,2.21757 -4.86487,2.21757 -0.12469,0 -4.06054,1.86311 -8.74635,4.14025 -7.06125,3.43152 -11.47583,5.4061 -12.18145,5.44859 -0.0695,0.004 -0.14366,-0.61742 -0.16491,-1.38135 z"
         id="path3165"
         transform="scale(0.26458333)" />
      <path
         style="opacity:1;fill:#376c8c;fill-opacity:1;stroke:#cd8b25;stroke-width:0.954475;stroke-miterlimit:4;stroke-dasharray:none;stroke-opacity:1"
         d="m 207.54142,256.25468 c -0.69448,-0.54323 -1.45488,-0.99274 -1.68979,-0.99892 -0.23491,-0.006 -1.03041,-0.43918 -1.76777,-0.96225 -0.73736,-0.52305 -2.19298,-1.43219 -3.2347,-2.0203 -3.30635,-1.86662 -5.03572,-2.86982 -10.9854,-6.37259 -3.19461,-1.88077 -6.49023,-3.81096 -7.32361,-4.28932 -1.9431,-1.11536 -14.54392,-8.56892 -19.33708,-11.43816 -2.02385,-1.2115 -3.7945,-2.20273 -3.93479,-2.20273 -0.14029,0 -0.87091,-0.4264 -1.62359,-0.94757 -0.75268,-0.52116 -5.57327,-3.39413 -10.71242,-6.38437 -5.13915,-2.99024 -10.1394,-5.91888 -11.11168,-6.5081 -6.43746,-3.90123 -14.16375,-8.38331 -14.45129,-8.38331 -0.14655,0 -1.25749,-0.68186 -2.46876,-1.51523 -1.21127,-0.83338 -2.31514,-1.51523 -2.45304,-1.51523 -0.1379,0 -2.13995,-1.15949 -4.449,-2.57663 -2.30905,-1.41715 -5.10996,-3.05242 -6.22426,-3.63393 l -2.02599,-1.05729 2.02031,-0.39167 c 2.20404,-0.4273 8.79439,-1.2655 15.15228,-1.92717 2.22234,-0.23127 4.49518,-0.55066 5.05077,-0.70974 0.55558,-0.15908 2.03293,-0.38825 3.28299,-0.50926 2.54287,-0.24617 8.62788,-0.99592 16.87325,-2.07899 l 5.50903,-0.72364 10.40087,7.40313 c 5.72048,4.07172 11.22738,7.9859 12.23755,8.69819 1.01017,0.71229 4.07851,2.91242 6.81853,4.88917 2.74002,1.97675 6.00463,4.31111 7.2547,5.18747 1.25006,0.87636 3.97747,2.84604 6.06091,4.37707 2.08344,1.53103 5.37906,3.90138 7.32361,5.26743 4.18152,2.93755 6.22391,4.39314 14.18668,10.11074 3.28843,2.36123 6.17255,4.4293 6.40916,4.5957 0.71626,0.50372 -11.68025,17.59288 -12.76716,17.60014 -0.41669,0.003 -1.32583,-0.43941 -2.02031,-0.98264 z"
         id="path3167"
         transform="scale(0.26458333)" />
      <path
         style="opacity:1;fill:#376c8c;fill-opacity:1;stroke:#cd8b25;stroke-width:0.954475;stroke-miterlimit:4;stroke-dasharray:none;stroke-opacity:1"
         d="m 81.272357,169.29409 v -23.14603 h 5.6957 5.695701 l 2.584839,1.89403 c 6.816673,4.99491 11.245153,8.18724 13.544043,9.7634 1.38545,0.9499 3.93588,2.80669 5.66762,4.1262 1.73175,1.31951 3.27367,2.39911 3.42649,2.39911 0.15282,0 1.69351,1.09648 3.42374,2.43661 1.73024,1.34013 3.94138,2.91711 4.91365,3.50441 0.97228,0.58729 4.31892,2.9569 7.43699,5.2658 3.11806,2.30891 6.94381,5.07705 8.50165,6.15143 1.55785,1.07438 2.64325,2.13992 2.41201,2.36786 -0.23124,0.22795 -1.32957,0.53832 -2.44074,0.68973 -1.11117,0.1514 -3.38401,0.47671 -5.05077,0.72291 -1.66675,0.2462 -3.31864,0.33779 -3.67087,0.20353 -0.35223,-0.13426 -1.26137,-0.004 -2.0203,0.28972 -0.75894,0.29361 -2.7436,0.6513 -4.41035,0.79487 -1.66675,0.14357 -3.71231,0.38819 -4.54569,0.54361 -0.83337,0.15541 -6.97005,0.9503 -13.63706,1.76641 -6.667,0.81612 -14.962881,1.83732 -18.43528,2.26935 -3.4724,0.43202 -6.938486,0.85696 -7.702414,0.94429 l -1.388959,0.15879 z"
         id="path3169"
         transform="scale(0.26458333)" />
      <path
         style="opacity:1;fill:#376c8c;fill-opacity:1;stroke:#cd8b25;stroke-width:0.954475;stroke-miterlimit:4;stroke-dasharray:none;stroke-opacity:1"
         d="m 122.41258,377.08645 c -0.29072,-0.20409 -2.31038,-4.80312 -4.48813,-10.22006 -2.17776,-5.41694 -4.15592,-10.06491 -4.39592,-10.32881 -0.24,-0.2639 -0.43637,-0.77777 -0.43637,-1.14193 0,-0.36415 -0.47722,-1.73922 -1.06049,-3.05571 -0.58327,-1.31648 -1.29164,-2.96182 -1.57415,-3.6563 -0.28252,-0.69448 -0.71444,-1.65735 -0.95982,-2.13972 -0.24538,-0.48237 -0.44615,-1.10066 -0.44615,-1.37399 0,-0.27333 -0.54154,-1.69694 -1.20342,-3.16358 -0.66189,-1.46664 -1.37156,-3.23483 -1.57705,-3.92931 -0.20549,-0.69448 -0.53395,-1.48997 -0.72991,-1.76777 -0.19595,-0.27779 -0.76624,-1.64149 -1.26729,-3.03045 -0.50105,-1.38896 -1.10839,-2.74131 -1.34966,-3.00521 -0.24126,-0.2639 -0.43866,-0.78627 -0.43866,-1.16082 0,-0.37454 -0.45457,-1.62185 -1.01015,-2.77177 -0.55559,-1.14992 -1.01015,-2.26516 -1.01015,-2.47831 0,-0.21314 -0.657236,-1.81826 -1.460518,-3.56693 -0.803283,-1.74867 -1.965837,-4.54311 -2.583453,-6.20986 -0.617617,-1.66675 -1.551377,-3.99394 -2.075021,-5.17153 -0.523644,-1.17759 -0.952081,-2.27126 -0.952081,-2.43039 0,-0.15912 -0.53781,-1.46848 -1.195134,-2.90969 -0.657323,-1.44121 -1.702261,-3.98408 -2.322082,-5.65083 -1.422209,-3.82444 -1.698076,-4.50935 -2.998439,-7.44437 -0.583269,-1.31649 -1.060489,-2.69156 -1.060489,-3.05571 0,-0.36416 -0.188456,-0.87803 -0.418792,-1.14193 -0.230336,-0.2639 -1.257666,-2.52538 -2.282956,-5.02551 l -1.864163,-4.54569 0.136381,-24.68899 0.136382,-24.689 5.244102,5.74864 c 2.884256,3.16175 7.429942,8.10404 10.101525,10.98286 2.671583,2.87883 5.058978,5.60624 5.305318,6.06092 0.24634,0.45467 1.38277,1.74846 2.52538,2.87507 2.78484,2.74584 6.30363,6.5844 8.05083,8.78246 0.78521,0.98784 3.23394,3.72798 5.44163,6.08921 4.6615,4.98572 8.44281,9.13128 12.18711,13.3611 1.46404,1.65388 6.40649,7.10871 10.98324,12.12184 4.57675,5.01313 9.25429,10.13756 10.39455,11.38763 1.14026,1.25006 4.61193,5.03839 7.71482,8.41852 3.10289,3.38012 5.64162,6.53203 5.64162,7.00423 0,0.4722 -1.21179,2.47962 -2.69285,4.46092 -2.2771,3.0462 -4.97741,6.74935 -11.19675,15.35504 -0.55558,0.76876 -2.69684,3.66644 -4.75835,6.4393 -2.06151,2.77285 -4.48889,6.06432 -5.39418,7.31438 -0.90529,1.25007 -3.19607,4.36037 -5.09064,6.91178 -1.89456,2.55142 -4.922,6.75618 -6.72765,9.34391 -2.71425,3.8899 -5.71878,7.50968 -6.2046,7.47517 -0.0599,-0.004 -0.34671,-0.17472 -0.63742,-0.37881 z"
         id="path3171"
         transform="scale(0.26458333)" />
      <path
         style="opacity:1;fill:#e4d5d2;fill-opacity:1;stroke:#cd8b25;stroke-width:0.954475;stroke-miterlimit:4;stroke-dasharray:none;stroke-opacity:1"
         d="m 133.90561,475.33152 c -0.2879,-0.34724 -1.79182,-2.44962 -3.34206,-4.67196 -1.55024,-2.22233 -4.46768,-6.38428 -6.4832,-9.24876 -2.01552,-2.86449 -5.14193,-7.32681 -6.94758,-9.91626 -6.54474,-9.38573 -11.98621,-17.15002 -17.819399,-25.42607 -6.446636,-9.14639 -6.990588,-9.91077 -11.493666,-16.1514 -1.656498,-2.29567 -3.011814,-4.28388 -3.011814,-4.41825 0,-0.13436 -0.795496,-1.35157 -1.767767,-2.7049 l -1.767767,-2.4606 0.03987,-56.50822 c 0.02193,-31.07953 0.155945,-56.1673 0.29781,-55.75061 0.141864,0.41669 0.582506,1.48228 0.979203,2.36798 1.102937,2.46252 4.744028,11.71915 4.744028,12.0606 0,0.26857 1.320091,3.42114 4.004167,9.56254 0.485632,1.11117 1.62845,3.95222 2.539596,6.31346 0.911145,2.36123 2.08502,5.25798 2.60861,6.43722 0.52359,1.17925 2.56283,6.1795 4.531649,11.11168 1.96881,4.93218 4.12738,10.16758 4.79681,11.63422 0.66943,1.46664 1.21715,2.89025 1.21715,3.16358 0,0.27333 0.20076,0.89162 0.44615,1.37399 0.74588,1.46625 1.37725,3.00156 5.65707,13.75648 2.26616,5.69473 4.52315,11.2632 5.01552,12.37436 0.49238,1.11117 2.74731,6.67964 5.01097,12.37437 2.26365,5.69474 4.56077,11.31755 5.10469,12.49514 0.54392,1.17759 0.98895,2.32813 0.98895,2.55678 0,0.22864 0.45457,1.35656 1.01016,2.50648 0.55558,1.14993 1.01015,2.39723 1.01015,2.77178 0,0.37455 0.20134,0.89692 0.44741,1.16082 0.24608,0.2639 2.30931,5.13915 4.58497,10.83388 2.27565,5.69474 4.4608,11.01402 4.85588,11.82063 0.39509,0.8066 0.71834,1.65218 0.71834,1.87906 0,0.22688 0.54585,1.61249 1.21299,3.07913 0.66714,1.46664 2.04269,4.82582 3.05678,7.46485 1.01408,2.63902 2.6493,6.73014 3.63382,9.09137 0.98452,2.36123 2.48401,5.99778 3.3322,8.08122 0.84819,2.08344 1.87292,4.55445 2.27717,5.49115 0.40426,0.93669 0.91481,2.30039 1.13456,3.03046 0.21976,0.73005 0.56119,1.72512 0.75874,2.21126 0.33589,0.82657 -0.39351,0.88388 -11.24977,0.88388 -8.67127,0 -11.74141,-0.15976 -12.13239,-0.63134 z"
         id="path3173"
         transform="scale(0.26458333)" />
      <path
         style="opacity:1;fill:#e4d5d2;fill-opacity:1;stroke:#cd8b25;stroke-width:0.954475;stroke-miterlimit:4;stroke-dasharray:none;stroke-opacity:1"
         d="m 147.24087,435.88453 c -0.72531,-1.5857 -1.31875,-3.12539 -1.31875,-3.42153 0,-0.29615 -0.33337,-1.14173 -0.74083,-1.87907 -0.40746,-0.73734 -1.85913,-4.18168 -3.22595,-7.65408 -3.59666,-9.13734 -9.64565,-24.08609 -10.93424,-27.02158 -0.60972,-1.38896 -2.07586,-4.96559 -3.2581,-7.94807 l -2.14952,-5.42268 2.0731,-2.4761 c 1.1402,-1.36184 2.0731,-2.60759 2.0731,-2.76832 0,-0.16073 2.44331,-3.55326 5.42957,-7.53895 2.98626,-3.98569 7.97583,-10.7548 11.08792,-15.04249 3.11209,-4.28768 6.92788,-9.50042 8.47953,-11.58386 1.55164,-2.08344 4.21965,-5.71999 5.9289,-8.08122 1.70926,-2.36123 5.03021,-6.90692 7.37989,-10.10152 2.34969,-3.19461 4.93,-6.71752 5.73402,-7.82868 3.64387,-5.03586 18.74995,-25.54934 23.41667,-31.79897 1.6509,-2.21087 3.34257,-4.52088 3.75925,-5.13335 1.75313,-2.57684 4.05815,-5.81163 4.55253,-6.38887 0.29227,-0.34125 1.59244,-2.0978 2.88927,-3.90345 1.29684,-1.80564 3.86081,-5.32855 5.69773,-7.82868 1.83692,-2.50013 5.37092,-7.30952 7.85334,-10.68753 2.48242,-3.37802 4.77414,-6.56 5.09272,-7.07107 0.43047,-0.69059 0.77967,-0.79951 1.35975,-0.42414 4.78099,3.09375 12.41848,8.70575 12.43482,9.13706 0.0115,0.30292 -5.12175,10.87164 -11.40717,23.48605 -6.28542,12.6144 -14.7821,29.75381 -18.88151,38.08756 -4.09941,8.33376 -19.29874,38.98209 -33.77629,68.10741 -14.47755,29.12531 -26.32787,53.1038 -26.33404,53.28554 -0.006,0.18174 -0.43552,0.88241 -0.9541,1.55705 l -0.94286,1.22662 z"
         id="path3175"
         transform="scale(0.26458333)" />
      <path
         style="opacity:1;fill:#e4d5d2;fill-opacity:1;stroke:#cd8b25;stroke-width:0.954475;stroke-miterlimit:4;stroke-dasharray:none;stroke-opacity:1"
         d="m 253.50337,357.34774 c 0,-0.57223 0.20204,-1.56251 0.44898,-2.20061 0.24694,-0.6381 0.96303,-2.97846 1.59131,-5.2008 0.62829,-2.22233 1.46888,-5.06339 1.868,-6.31345 0.39911,-1.25006 1.94084,-6.36396 3.42607,-11.36422 1.48522,-5.00025 3.0467,-10.22779 3.46994,-11.61675 0.42325,-1.38896 1.46475,-4.91187 2.31446,-7.82868 1.92671,-6.61388 4.34687,-14.68723 5.29926,-17.67767 0.39811,-1.25007 1.88609,-6.25032 3.30661,-11.11168 1.42052,-4.86136 2.76934,-9.40705 2.99739,-10.10153 0.22805,-0.69448 0.69872,-2.28547 1.04594,-3.53553 0.34722,-1.25006 1.02499,-3.52291 1.50615,-5.05076 0.48117,-1.52786 1.12978,-3.68706 1.44135,-4.79823 1.25071,-4.46048 5.17916,-17.56269 6.36037,-21.2132 0.35954,-1.11117 0.90854,-2.92944 1.21999,-4.04061 0.31145,-1.11117 1.00646,-3.49765 1.54447,-5.3033 0.53802,-1.80565 1.47452,-4.98763 2.08111,-7.07107 0.6066,-2.08344 1.32236,-4.52675 1.59059,-5.42957 0.26822,-0.90282 0.731,-1.6415 1.0284,-1.6415 0.68952,0 20.71868,8.04957 21.22585,8.53051 0.20854,0.19776 0.1346,2.16631 -0.16432,4.37455 -0.92729,6.85035 -1.45826,10.69858 -1.98262,14.36906 -0.27779,1.94454 -0.71524,5.0697 -0.9721,6.9448 -0.25687,1.8751 -0.71893,5.22754 -1.02681,7.44988 -0.30789,2.22233 -0.76234,5.51795 -1.00991,7.3236 -1.1227,8.1886 -3.13688,22.42489 -3.82307,27.02158 -1.29273,8.65983 -1.70062,11.4864 -2.25948,15.65737 -0.6336,4.72881 -1.39867,9.98465 -2.02182,13.88959 -0.24382,1.52786 -0.69442,4.82348 -1.00134,7.32361 -0.30691,2.50013 -0.77504,5.64263 -1.04028,6.98333 -0.26524,1.34071 -0.48225,3.20996 -0.48225,4.15391 0,1.3897 -0.28354,1.86289 -1.49015,2.48685 -0.81958,0.42382 -1.84544,0.77058 -2.27969,0.77058 -0.43425,0 -1.18422,0.22013 -1.66658,0.48916 -0.48237,0.26904 -1.89981,0.82454 -3.14987,1.23444 -1.25007,0.4099 -7.95496,2.70159 -14.89976,5.09266 -6.94479,2.39106 -14.89975,5.10707 -17.67766,6.03558 -2.77792,0.9285 -5.44851,1.85027 -5.93465,2.04836 -0.6723,0.27395 -0.88388,0.11111 -0.88388,-0.68026 z"
         id="path3177"
         transform="scale(0.26458333)" />
      <path
         style="opacity:1;fill:#e4d5d2;fill-opacity:1;stroke:#cd8b25;stroke-width:0.954475;stroke-miterlimit:4;stroke-dasharray:none;stroke-opacity:1"
         d="m 355.74048,307.6462 c 0.22516,-11.98531 0.70959,-44.27751 0.96983,-64.64977 0.0169,-1.31951 0.26929,-2.40701 0.56098,-2.41666 0.29168,-0.01 6.004,2.18117 12.69405,4.86848 l 12.16371,4.88604 1.8766,5.61185 c 1.03213,3.08651 2.07917,6.06641 2.32675,6.622 0.5243,1.17651 3.62886,10.03345 5.31124,15.15229 0.63909,1.94454 2.10526,6.1493 3.25814,9.34391 1.15288,3.1946 2.4453,6.83115 2.87205,8.08122 0.42675,1.25006 1.56636,4.40559 2.53247,7.01227 0.96611,2.6067 1.57101,4.92385 1.34422,5.14924 -0.42679,0.42415 -18.43198,6.74596 -28.19154,9.89834 -3.05571,0.987 -6.01041,1.98072 -6.56599,2.20825 -2.60718,1.06773 -10.06067,3.51109 -10.71061,3.51109 -0.62546,0 -0.68819,-2.16888 -0.4419,-15.27855 z"
         id="path3179"
         transform="scale(0.26458333)" />
      <path
         style="opacity:1;fill:#e4d5d2;fill-opacity:1;stroke:#cd8b25;stroke-width:0.954475;stroke-miterlimit:4;stroke-dasharray:none;stroke-opacity:1"
         d="m 375.98436,241.64148 c -4.84891,-2.22198 -6.83473,-3.06447 -7.22323,-3.06447 -0.22864,0 -1.35656,-0.45456 -2.50649,-1.01015 -1.14992,-0.55558 -2.39723,-1.01015 -2.77177,-1.01015 -0.37455,0 -0.89692,-0.19983 -1.16082,-0.44406 -0.2639,-0.24424 -1.38896,-0.73169 -2.50013,-1.08323 -1.11117,-0.35154 -3.15673,-1.1525 -4.54569,-1.77991 -1.38896,-0.62741 -6.61649,-2.76877 -11.61675,-4.75859 -5.00025,-1.98981 -9.48603,-3.83007 -9.9684,-4.08948 -0.48237,-0.2594 -1.10066,-0.47164 -1.374,-0.47164 -0.27332,0 -1.69694,-0.54546 -3.16357,-1.21215 -1.46664,-0.66669 -5.96225,-2.51034 -9.99023,-4.097 -4.02798,-1.58666 -8.00546,-3.17321 -8.83883,-3.52568 -0.83338,-0.35245 -2.7653,-1.13475 -4.29315,-1.73844 -1.52786,-0.60368 -3.23249,-1.29319 -3.78807,-1.53223 -0.55559,-0.23904 -7.37412,-2.97472 -15.15229,-6.07927 -7.77818,-3.10456 -14.64553,-5.96514 -15.26079,-6.35685 -0.61526,-0.3917 -1.43523,-0.71219 -1.82216,-0.71219 -0.56434,0 -16.18613,-6.18762 -20.2927,-8.03771 -0.55558,-0.2503 -6.46497,-2.62447 -13.13198,-5.27594 -14.52011,-5.77463 -35.96597,-14.35155 -37.37564,-14.94778 -0.55559,-0.23499 -2.08728,-0.90447 -3.40376,-1.48773 -1.31649,-0.58327 -2.62646,-1.06049 -2.91105,-1.06049 -0.28459,0 -0.91209,-0.20872 -1.39446,-0.46381 -1.77089,-0.93651 -5.67828,-2.56665 -6.15217,-2.56665 -0.26836,0 -2.5959,-0.92763 -5.17231,-2.0614 -2.5764,-1.13377 -6.73454,-2.85134 -9.24029,-3.81683 -2.50576,-0.96549 -5.23777,-2.05517 -6.07115,-2.4215 -0.83338,-0.36634 -4.24264,-1.74538 -7.57614,-3.06454 -3.33351,-1.31915 -6.74277,-2.68385 -7.57615,-3.03266 -0.83337,-0.34881 -3.44714,-1.40014 -5.80838,-2.33628 l -4.29314,-1.70208 5.55584,-0.14646 c 3.05571,-0.0806 14.19264,-0.0743 24.74873,0.014 l 19.1929,0.16046 6.06092,2.05082 c 3.3335,1.12795 7.76554,2.56195 9.84898,3.18668 2.08344,0.62473 5.03814,1.54292 6.566,2.04043 1.52785,0.49751 4.48255,1.4069 6.56599,2.02087 6.06801,1.7882 6.53935,1.93039 12.37437,3.73307 3.05571,0.94403 7.94232,2.45003 10.85914,3.34667 2.91681,0.89665 6.56849,2.06085 8.11484,2.58712 1.54636,0.52628 3.19725,0.95687 3.66866,0.95687 0.47141,0 1.25177,0.21941 1.73414,0.48759 0.48237,0.26817 5.42272,1.84595 10.97855,3.50617 12.52687,3.74334 15.45271,4.63179 16.41498,4.9845 0.41669,0.15273 2.12132,0.66871 3.78808,1.14662 1.66675,0.47791 6.43972,1.93504 10.6066,3.23808 9.4106,2.94283 21.56062,6.6741 24.24366,7.44523 1.11117,0.31936 2.23622,0.76842 2.50013,0.99791 0.2639,0.22949 0.93062,0.41725 1.4816,0.41725 0.55097,0 2.38061,0.45957 4.06586,1.02125 1.68525,0.56169 3.74594,1.22473 4.57931,1.47341 0.83338,0.24869 3.56079,1.06104 6.06092,1.80522 2.50013,0.74418 5.79575,1.75534 7.32361,2.24701 1.52785,0.49168 3.8007,1.19121 5.05076,1.55451 1.25006,0.3633 2.48876,0.84831 2.75266,1.0778 0.26391,0.22949 1.00014,0.41725 1.63608,0.41725 0.63594,0 2.35194,0.45446 3.81333,1.0099 1.46139,0.55545 3.02029,1.01001 3.46423,1.01016 0.51119,1.6e-4 1.10737,0.87993 1.62592,2.39936 0.45032,1.31951 2.31848,6.60387 4.15147,11.74302 1.83299,5.13915 3.98813,11.27583 4.7892,13.63706 2.91649,8.59664 4.38748,12.6466 4.71086,12.96998 0.56517,0.56517 0.36234,1.67851 -0.30098,1.65206 -0.34724,-0.0138 -1.54048,-0.44178 -2.65165,-0.95097 z"
         id="path3181"
         transform="scale(0.26458333)" />
      <path
         style="opacity:1;fill:#e4d5d2;fill-opacity:1;stroke:#cd8b25;stroke-width:0.954475;stroke-miterlimit:4;stroke-dasharray:none;stroke-opacity:1"
         d="m 461.86062,388.96348 c -1.39381,-4.23994 -1.98685,-6.19813 -3.00048,-9.90757 -0.6554,-2.39846 -2.82866,-9.92931 -4.82947,-16.73521 -2.0008,-6.8059 -3.93293,-13.39715 -4.29362,-14.64721 -0.36069,-1.25006 -1.47349,-5.1139 -2.47289,-8.5863 -0.99941,-3.4724 -2.50976,-8.69994 -3.35635,-11.61675 -0.84659,-2.91682 -1.78947,-6.21244 -2.09531,-7.32361 -0.30583,-1.11116 -0.95245,-3.27037 -1.43692,-4.79822 -0.84909,-2.67772 -1.96216,-6.48456 -3.76578,-12.87945 -0.47009,-1.66675 -1.03745,-3.59867 -1.26081,-4.29315 -0.22335,-0.69447 -0.68609,-2.28547 -1.02832,-3.53553 -0.34223,-1.25006 -0.79953,-2.84105 -1.01624,-3.53553 -0.8876,-2.84451 -2.53855,-8.52123 -3.30503,-11.36422 -1.16266,-4.3125 -1.73051,-6.34752 -2.25496,-8.08122 -3.13635,-10.36802 -4.2738,-14.18519 -5.11712,-17.17259 -0.54893,-1.94455 -1.21083,-4.27421 -1.47088,-5.17703 -0.26006,-0.90283 -0.71293,-2.49382 -1.00638,-3.53554 -0.29346,-1.04172 -0.74803,-2.63271 -1.01015,-3.53553 -0.26213,-0.90283 -0.7167,-2.49382 -1.01016,-3.53554 -1.03675,-3.68031 -1.41475,-4.96105 -2.4969,-8.46002 -0.6014,-1.94455 -1.28623,-4.21739 -1.52184,-5.05077 -0.2356,-0.83337 -0.80919,-2.76529 -1.27464,-4.29314 -0.46544,-1.52786 -0.96479,-3.55205 -1.10965,-4.49819 -0.2342,-1.5296 -0.15828,-1.67726 0.68495,-1.33226 0.52158,0.21341 2.76661,0.94357 4.98895,1.62259 7.17447,2.19211 15.62369,4.78895 16.92005,5.20032 0.69448,0.22038 2.96732,0.90045 5.05076,1.51127 5.88281,1.72472 7.29628,2.53974 7.483,4.31479 0.0877,0.83338 1.15602,6.51549 2.37411,12.62691 1.21809,6.11142 2.81845,14.29366 3.55634,18.18275 0.7379,3.88908 1.52361,7.9802 1.74603,9.09137 1.27898,6.38952 1.6305,8.23137 1.83146,9.59645 0.12268,0.83338 0.42739,2.31072 0.67711,3.283 0.24973,0.97227 0.71656,3.24511 1.03741,5.05076 0.32084,1.80565 1.23483,6.46497 2.0311,10.35406 0.79626,3.88909 2.24722,11.27583 3.22436,16.41498 0.97715,5.13915 2.00789,10.48033 2.29055,11.86929 0.28266,1.38896 0.97014,4.91187 1.52773,7.82869 1.33531,6.98515 1.92162,10.028 2.28702,11.86929 0.16539,0.83337 0.49115,2.53801 0.72392,3.78807 0.40017,2.14906 1.12218,5.82215 2.03529,10.35406 0.22388,1.11117 1.12448,5.65686 2.00134,10.10153 0.87685,4.44467 1.91175,9.66422 2.29978,11.599 0.38802,1.93478 0.65963,3.5578 0.60357,3.60671 -0.0561,0.0489 -3.03402,1.47743 -6.61769,3.17448 -6.59997,3.12544 -8.24837,3.59458 -8.62324,2.45421 z"
         id="path3183"
         transform="scale(0.26458333)" />
      <path
         style="opacity:1;fill:#e4d5d2;fill-opacity:1;stroke:#cd8b25;stroke-width:0.954475;stroke-miterlimit:4;stroke-dasharray:none;stroke-opacity:1"
         d="m 274.50958,430.89994 c -0.36508,-1.85478 -1.42694,-8.30123 -2.31118,-14.031 -0.32152,-2.08344 -0.77939,-5.03814 -1.01749,-6.56599 -1.36159,-8.73713 -2.52314,-16.49868 -2.67367,-17.86561 -0.1082,-0.9826 1.12703,-1.46757 6.96694,-2.73533 1.38896,-0.30152 5.36644,-1.23349 8.83884,-2.07104 8.11079,-1.95635 20.86922,-4.99901 30.80965,-7.34757 4.30578,-1.01729 9.70378,-2.29309 11.99556,-2.8351 2.29179,-0.542 6.15562,-1.45082 8.5863,-2.0196 2.43068,-0.56878 5.27173,-1.25063 6.31345,-1.51523 3.7803,-0.96021 5.799,-1.4476 12.2481,-2.95719 10.07839,-2.35913 17.16218,-4.02882 22.98097,-5.41676 2.91682,-0.69574 6.78065,-1.60327 8.5863,-2.01675 7.01848,-1.60717 12.02234,-2.80864 15.65736,-3.75947 3.7304,-0.97578 16.84409,-4.00859 17.33292,-4.00859 0.13787,0 0.70858,1.42053 1.26824,3.15673 0.55966,1.7362 1.8009,5.31592 2.75831,7.95495 0.95741,2.63902 1.89582,5.50674 2.08535,6.37271 l 0.34459,1.57448 -4.19229,1.63922 c -2.30576,0.90157 -5.15577,2.06815 -6.33336,2.59239 -1.17759,0.52425 -2.29643,0.95318 -2.48631,0.95318 -0.18989,0 -4.79487,1.71779 -10.2333,3.81731 -5.43843,2.09952 -11.59269,4.46821 -13.67613,5.26375 -3.56637,1.36178 -12.81335,4.94169 -22.0138,8.52251 -2.24598,0.87413 -4.23719,1.58933 -4.42492,1.58933 -0.18773,0 -1.30481,0.43432 -2.4824,0.96515 -1.17759,0.53084 -3.49013,1.45256 -5.13899,2.04829 -2.64907,0.95709 -12.96811,4.94843 -15.6899,6.06874 -0.55559,0.22868 -2.37386,0.91467 -4.04061,1.52442 -1.66675,0.60975 -3.48503,1.29242 -4.04061,1.51703 -0.55559,0.22463 -3.51028,1.3623 -6.56599,2.52817 -3.05572,1.16586 -6.91955,2.65694 -8.5863,3.31349 -1.66675,0.65656 -6.0988,2.34707 -9.84899,3.75669 -3.75019,1.40961 -7.2731,2.75999 -7.82868,3.00084 -2.01912,0.87529 -20.73725,8.03772 -21.785,8.33596 -0.90595,0.25787 -1.12863,0.0436 -1.40296,-1.35011 z"
         id="path3185"
         transform="scale(0.26458333)" />
      <path
         style="opacity:1;fill:#e4d5d2;fill-opacity:1;stroke:#cd8b25;stroke-width:0.954475;stroke-miterlimit:4;stroke-dasharray:none;stroke-opacity:1"
         d="m 414.11762,426.29587 c 0,-0.0932 1.3716,-1.5976 3.04799,-3.34303 1.67639,-1.74543 4.2052,-4.50399 5.61957,-6.13013 1.41438,-1.62614 3.029,-3.10179 3.58806,-3.27923 0.55906,-0.17744 4.33739,-1.91427 8.39629,-3.85962 4.0589,-1.94536 8.74353,-4.16605 10.41028,-4.93487 8.39661,-3.87311 17.57118,-8.1863 25.50635,-11.99115 3.19461,-1.53179 7.05844,-3.35337 8.5863,-4.04795 2.90854,-1.32226 8.57763,-3.97015 15.40483,-7.19521 2.22233,-1.0498 5.85888,-2.75172 8.08122,-3.78205 2.22233,-1.03034 6.08617,-2.84952 8.58629,-4.04264 2.50013,-1.19312 5.68211,-2.6832 7.07107,-3.3113 3.23118,-1.46116 14.52227,-6.82097 21.82947,-10.3623 3.11686,-1.51055 5.76584,-2.74645 5.88661,-2.74645 0.12077,0 3.55844,-1.59099 7.63926,-3.53554 4.08082,-1.94454 7.4811,-3.53553 7.55618,-3.53553 0.0751,0 4.15537,-1.93192 9.0673,-4.29315 4.91195,-2.36123 9.08342,-4.29315 9.26995,-4.29315 0.18653,0 3.07361,-1.34779 6.41575,-2.9951 7.67633,-3.78359 20.00393,-9.6318 20.30312,-9.6318 0.12486,0 4.21084,-1.93192 9.07996,-4.29315 4.86912,-2.36123 8.91985,-4.29315 9.00163,-4.29315 0.0818,0 3.07372,-1.38333 6.64874,-3.07406 3.57502,-1.69073 8.09102,-3.82664 10.03557,-4.74646 l 3.53553,-1.6724 0.13109,29.11639 c 0.0721,16.01402 0.0378,29.3603 -0.0761,29.65842 -0.11398,0.29812 -2.33217,1.0543 -4.92932,1.68041 -2.59714,0.62612 -8.0177,1.93034 -12.04569,2.89829 -4.02798,0.96794 -8.63049,2.08685 -10.22779,2.48646 -1.5973,0.39961 -4.32472,1.08175 -6.06092,1.51586 -1.7362,0.43411 -5.99778,1.47789 -9.47018,2.31951 -3.4724,0.84162 -7.44987,1.83832 -8.83883,2.21488 -2.1565,0.58464 -9.22577,2.3026 -17.93021,4.35736 -1.25006,0.2951 -2.95469,0.73173 -3.78807,0.97032 -0.83338,0.23857 -4.46993,1.12757 -8.08122,1.97555 -3.6113,0.84797 -7.24785,1.74794 -8.08122,1.99993 -1.46622,0.44335 -10.85127,2.74449 -26.01143,6.37779 -4.02798,0.96535 -8.1191,1.97291 -9.09137,2.23902 -0.97227,0.26611 -10.06365,2.51835 -20.20305,5.00496 -10.13941,2.48662 -28.54944,7.01427 -40.91118,10.06146 -12.36174,3.04718 -24.52145,6.01603 -27.02158,6.59746 -2.50013,0.58143 -5.398,1.28382 -6.43972,1.56086 -1.04172,0.27704 -2.86,0.74639 -4.04061,1.043 -1.18062,0.29662 -2.84457,0.75119 -3.69767,1.01016 -1.51461,0.45978 -3.75221,0.63947 -3.75221,0.30133 z"
         id="path3187"
         transform="scale(0.26458333)" />
      <path
         style="opacity:1;fill:#e4d5d2;fill-opacity:1;stroke:#cd8b25;stroke-width:0.954475;stroke-miterlimit:4;stroke-dasharray:none;stroke-opacity:1"
         d="m 341.38664,475.65089 c 0,-0.17158 1.20967,-1.93304 2.68816,-3.91434 2.39703,-3.21222 8.37381,-11.40403 12.67756,-17.37593 0.85488,-1.18624 2.63941,-3.53778 3.96561,-5.22565 1.32621,-1.68786 2.74331,-3.7109 3.14911,-4.49563 0.92159,-1.78215 2.50958,-2.87258 7.31906,-5.02577 4.32919,-1.93817 10.90314,-5.01399 18.94036,-8.8618 14.2794,-6.83626 18.65924,-8.84157 19.03599,-8.71564 0.41136,0.1375 -10.53612,11.42552 -37.72715,38.90071 l -14.87061,15.02602 h -7.58905 c -4.17397,0 -7.58904,-0.14038 -7.58904,-0.31197 z"
         id="path3191"
         transform="scale(0.26458333)" />
      <path
         style="opacity:1;fill:#e4d5d2;fill-opacity:1;stroke:#cd8b25;stroke-width:0.954475;stroke-miterlimit:4;stroke-dasharray:none;stroke-opacity:1"
         d="m 633.5242,474.5739 c -0.17646,-0.76392 -1.5638,-5.70736 -3.08298,-10.98541 -1.51917,-5.27804 -2.98293,-10.39194 -3.25279,-11.36421 -0.51308,-1.84855 -0.84078,-2.98262 -2.18923,-7.57615 -0.4485,-1.52785 -1.26436,-4.4313 -1.813,-6.4521 -0.54865,-2.02079 -1.30111,-4.63456 -1.67214,-5.80837 -0.37103,-1.17381 -0.93275,-3.04334 -1.24826,-4.1545 -0.31551,-1.11117 -1.04041,-3.6113 -1.61089,-5.55584 -0.57048,-1.94455 -1.2806,-4.44467 -1.57804,-5.55584 -0.29745,-1.11117 -0.71538,-2.58852 -0.92874,-3.283 -0.21336,-0.69448 -0.66747,-2.28547 -1.00915,-3.53553 -0.34167,-1.25007 -0.79686,-2.72741 -1.01153,-3.283 -0.21467,-0.55558 -1.46056,-4.87398 -2.76864,-9.59645 -1.30809,-4.72246 -2.58389,-9.10838 -2.83512,-9.74648 -0.76673,-1.94742 -0.53274,-2.44302 1.43726,-3.04425 2.53701,-0.77429 18.01402,-4.65267 20.68461,-5.18337 1.16769,-0.23204 4.23603,-0.97202 6.81853,-1.64441 2.58251,-0.67238 5.3205,-1.36741 6.08443,-1.5445 l 1.38896,-0.32197 v 50.01217 50.01217 h -5.54622 -5.54622 z"
         id="path3193"
         transform="scale(0.26458333)" />
      <path
         style="opacity:1;fill:#e4d5d2;fill-opacity:1;stroke:#cd8b25;stroke-width:0.954475;stroke-miterlimit:4;stroke-dasharray:none;stroke-opacity:1"
         d="m 555.1987,282.13984 c -5.01266,-9.93106 -9.26165,-18.52614 -9.4422,-19.10018 -0.28069,-0.89242 0.23979,-1.36298 3.59068,-3.24627 2.15543,-1.21141 6.80796,-3.86392 10.33896,-5.89448 3.531,-2.03056 7.84941,-4.45619 9.59645,-5.39029 2.7573,-1.47426 11.04359,-6.1533 25.90487,-14.62777 2.22234,-1.26726 7.56352,-4.25864 11.8693,-6.64751 4.30577,-2.38887 8.85146,-4.9467 10.10152,-5.68408 4.30959,-2.54208 20.82234,-11.76159 21.0658,-11.76159 0.1342,0 0.84731,-0.41463 1.58467,-0.9214 0.73736,-0.50677 2.19297,-1.43444 3.23469,-2.0615 l 1.89404,-1.1401 v 6.99994 6.99994 l -40.15066,40.26588 c -22.08286,22.14624 -40.22345,40.26589 -40.31243,40.26589 -0.089,0 -4.26304,-8.12541 -9.27569,-18.05648 z"
         id="path3197"
         transform="scale(0.26458333)" />
      <path
         style="opacity:1;fill:#e4d5d2;fill-opacity:1;stroke:#cd8b25;stroke-width:0.954475;stroke-miterlimit:4;stroke-dasharray:none;stroke-opacity:1"
         d="m 512.73908,197.53307 c -0.26751,-0.34367 -5.99811,-11.64814 -12.73466,-25.12105 -6.73655,-13.47291 -12.45247,-24.71212 -12.70204,-24.97602 -0.24958,-0.2639 -0.45378,-0.66165 -0.45378,-0.88388 0,-0.22224 18.01229,-0.39655 40.0273,-0.38736 l 40.02729,0.0167 -8.83883,8.61214 c -4.86136,4.73667 -16.64979,16.26384 -26.19652,25.61592 -9.54672,9.35208 -17.64673,17.17133 -18.00002,17.3761 -0.35329,0.20477 -0.86122,0.0911 -1.12874,-0.25254 z"
         id="path3199"
         transform="scale(0.26458333)" />
      <path
         style="opacity:1;fill:#38445e;fill-opacity:1;stroke:#cd8b25;stroke-width:0.954475;stroke-miterlimit:4;stroke-dasharray:none;stroke-opacity:1"
         d="m 439.97737,217.558 c -2.22233,-0.69904 -4.49518,-1.44752 -5.05076,-1.6633 -1.1757,-0.45661 -4.05866,-1.3357 -19.1929,-5.85245 -6.11142,-1.82392 -11.56624,-3.5019 -12.12183,-3.72884 -0.55558,-0.22694 -1.91929,-0.6652 -3.03046,-0.97392 -1.96919,-0.54709 -3.43982,-0.99445 -19.19289,-5.83843 -4.16688,-1.28129 -9.16714,-2.81177 -11.11168,-3.40107 -8.08891,-2.45136 -10.15221,-3.09292 -11.11168,-3.45503 -0.55558,-0.20967 -2.03293,-0.66078 -3.283,-1.00245 -1.25006,-0.34168 -2.84105,-0.80684 -3.53553,-1.03369 -2.50534,-0.81838 -21.41134,-6.59886 -25.00128,-7.6441 -1.11116,-0.32352 -2.23622,-0.77599 -2.50012,-1.00548 -0.2639,-0.22949 -0.93063,-0.41725 -1.4816,-0.41725 -0.55098,0 -2.26698,-0.42649 -3.81333,-0.94776 -1.54635,-0.52127 -5.19803,-1.67291 -8.11485,-2.55922 -13.14381,-3.99387 -16.98797,-5.18746 -17.93021,-5.56721 -0.55558,-0.22392 -2.03293,-0.69104 -3.28299,-1.03804 -4.62447,-1.28372 -5.36672,-1.50278 -8.33376,-2.45963 -1.66675,-0.53752 -4.73509,-1.48068 -6.81853,-2.09591 -5.1964,-1.53448 -11.3198,-3.41224 -14.64721,-4.49162 -1.52786,-0.49562 -3.8007,-1.18264 -5.05076,-1.5267 -1.25007,-0.34406 -2.66751,-0.8307 -3.14988,-1.08142 -0.48236,-0.25072 -1.43491,-0.45585 -2.11676,-0.45585 -0.68186,0 -1.38021,-0.22728 -1.55189,-0.50507 -0.17169,-0.2778 -0.85354,-0.50508 -1.51523,-0.50508 -0.66169,0 -1.34355,-0.22729 -1.51523,-0.50508 -0.17169,-0.27779 -0.96718,-0.50507 -1.76777,-0.50507 -0.80059,0 -1.59608,-0.22729 -1.76777,-0.50508 -0.17168,-0.27779 -0.85353,-0.50508 -1.51522,-0.50508 -0.66169,0 -1.34355,-0.22728 -1.51523,-0.50507 -0.17169,-0.27779 -0.83665,-0.50508 -1.47769,-0.50508 -0.64104,0 -2.27544,-0.42714 -3.63199,-0.94919 -1.35656,-0.52206 -3.83017,-1.33368 -5.49692,-1.8036 -1.66676,-0.46992 -5.18966,-1.5227 -7.82869,-2.33952 -2.63902,-0.81682 -5.70736,-1.74279 -6.81853,-2.05771 -6.81387,-1.93115 -7.07961,-1.89184 12.96173,-1.91724 l 19.02264,-0.0241 7.99894,1.5903 c 4.39942,0.87467 9.02172,1.6922 10.27178,1.81674 1.25007,0.12454 2.48877,0.43168 2.75267,0.68254 0.2639,0.25086 1.44373,0.4561 2.62184,0.4561 1.17811,0 2.26434,0.19792 2.41383,0.43981 0.1495,0.24189 1.35616,0.58001 2.68146,0.75136 1.32531,0.17136 3.54607,0.53277 4.93503,0.80314 1.38896,0.27036 3.77544,0.72772 5.3033,1.01636 1.52786,0.28864 3.8007,0.72734 5.05076,0.97489 1.25007,0.24755 4.3184,0.82402 6.81853,1.28104 4.27761,0.78193 11.09237,2.11357 20.96067,4.09582 7.34206,1.4748 12.78336,2.52095 16.92005,3.25307 1.38896,0.24582 3.20724,0.58388 4.04061,0.75125 0.83338,0.16737 2.7653,0.5424 4.29315,0.83342 1.52786,0.29101 3.68706,0.71947 4.79823,0.95213 3.15791,0.66123 6.84233,1.3763 16.92005,3.28386 14.86774,2.81424 24.87955,4.72341 26.51651,5.05648 0.83337,0.16956 2.65165,0.52885 4.04061,0.7984 1.38896,0.26956 3.6618,0.71763 5.05076,0.99572 1.38896,0.27809 3.77544,0.7232 5.3033,0.98914 1.52785,0.26595 3.8007,0.7031 5.05076,0.97147 2.52968,0.54306 3.29038,0.69286 16.92006,3.33194 5.27804,1.02197 9.86278,2.07318 10.18831,2.33601 0.32552,0.26283 0.73916,1.43076 0.91919,2.59538 0.18003,1.16462 0.51378,2.79935 0.74167,3.63273 0.2279,0.83337 0.69777,3.21986 1.04417,5.3033 0.3464,2.08344 0.96825,5.37906 1.38189,7.3236 0.41363,1.94455 0.95064,4.61514 1.19336,5.93465 0.24272,1.31951 0.65999,3.47871 0.92726,4.79822 0.26728,1.31952 0.634,3.13779 0.81494,4.04061 0.38495,1.92074 0.58681,1.90832 -4.58389,0.28187 z"
         id="path3201"
         transform="scale(0.26458333)" />
      <path
         style="opacity:1;fill:#376c8c;fill-opacity:1;stroke:#cd8b25;stroke-width:0.954475;stroke-miterlimit:4;stroke-dasharray:none;stroke-opacity:1"
         d="m 162.47145,474.10742 c -0.37098,-1.04172 -1.08729,-2.80317 -1.59181,-3.91434 -0.50451,-1.11117 -1.62866,-3.83858 -2.49811,-6.06092 -0.86945,-2.22233 -1.9266,-4.8361 -2.34922,-5.80838 -0.42263,-0.97227 -0.99904,-2.33597 -1.28092,-3.03045 -0.28188,-0.69448 -0.71327,-1.65736 -0.95865,-2.13972 -0.24538,-0.48237 -0.44615,-1.10988 -0.44615,-1.39447 0,-0.28459 -0.47668,-1.53152 -1.05929,-2.77097 l -1.05929,-2.25353 7.67068,-15.29236 c 4.21888,-8.4108 7.88186,-15.54814 8.13996,-15.86076 0.46389,-0.56187 1.65676,-0.92425 7.98825,-2.42674 3.58882,-0.85164 4.26603,-0.62268 4.79636,1.6216 0.89965,3.80716 4.63761,25.62302 5.14898,30.05097 0.18538,1.60519 0.53219,3.03913 0.77068,3.18653 0.23849,0.1474 0.43363,1.37759 0.43363,2.73376 0,1.35617 0.22728,2.60624 0.50507,2.77792 0.27779,0.17169 0.50508,1.53539 0.50508,3.03046 0,1.49506 0.22728,2.85877 0.50508,3.03046 0.27779,0.17168 0.50507,1.64903 0.50507,3.28299 0,1.63396 0.19879,3.0937 0.44176,3.24386 0.24297,0.15017 0.58513,1.47047 0.76035,2.934 0.17523,1.46354 0.45488,3.62693 0.62145,4.80755 l 0.30285,2.14657 h -13.58865 -13.58864 z"
         id="path3203"
         transform="scale(0.26458333)" />
      <path
         style="opacity:1;fill:#376c8c;fill-opacity:1;stroke:#cd8b25;stroke-width:0.954475;stroke-miterlimit:4;stroke-dasharray:none;stroke-opacity:1"
         d="m 235.39748,456.93483 c -5.16425,-10.48665 -9.88526,-20.08941 -10.49114,-21.33948 -0.60589,-1.25006 -1.27207,-2.3486 -1.48042,-2.4412 -0.20834,-0.0926 -0.37881,-0.40218 -0.37881,-0.68796 0,-0.28578 -2.84105,-6.24215 -6.31345,-13.23639 -3.4724,-6.99423 -6.31345,-12.96225 -6.31345,-13.26227 0,-0.30001 1.0796,-0.81665 2.39911,-1.14808 1.31951,-0.33143 3.19461,-0.82844 4.16688,-1.10445 1.49542,-0.42454 9.14988,-2.22251 16.92005,-3.9744 1.11117,-0.25053 2.92945,-0.6841 4.04061,-0.96351 1.11117,-0.2794 3.15673,-0.76874 4.54569,-1.08742 1.38896,-0.31868 3.32088,-0.77325 4.29315,-1.01015 0.97227,-0.2369 2.90419,-0.69147 4.29315,-1.01015 1.38896,-0.31868 3.32087,-0.77325 4.29315,-1.01015 4.59741,-1.12021 6.78983,-1.46453 7.09657,-1.11451 0.18406,0.21002 0.60843,2.31377 0.94304,4.675 0.33463,2.36123 0.82389,5.65685 1.08727,7.3236 0.26337,1.66676 0.72121,4.62145 1.01743,6.566 0.63742,4.18446 1.27477,8.16483 2.00165,12.50063 0.29107,1.7362 0.72737,4.52044 0.96956,6.18719 0.48066,3.30793 1.28938,8.52621 1.99601,12.87944 0.72323,4.45541 2.52203,16.10736 3.07991,19.95052 0.54843,3.77798 1.36444,8.71485 1.81577,10.9854 l 0.2761,1.38896 h -15.43415 -15.43415 z"
         id="path3205"
         transform="scale(0.26458333)" />
    </g>
  </g>
</svg>
